<?xml version="1.0" encoding="UTF-8" standalone="no"?>
<!-- Created with Inkscape (http://www.inkscape.org/) -->

<svg
   xmlns:dc="http://purl.org/dc/elements/1.1/"
   xmlns:cc="http://creativecommons.org/ns#"
   xmlns:rdf="http://www.w3.org/1999/02/22-rdf-syntax-ns#"
   xmlns:svg="http://www.w3.org/2000/svg"
   xmlns="http://www.w3.org/2000/svg"
   xmlns:xlink="http://www.w3.org/1999/xlink"
   xmlns:sodipodi="http://sodipodi.sourceforge.net/DTD/sodipodi-0.dtd"
   xmlns:inkscape="http://www.inkscape.org/namespaces/inkscape"
   version="1.1"
   id="svg8865"
   xml:space="preserve"
   width="1600"
   height="1054.6667"
   viewBox="0 0 1600 1054.6667"
   sodipodi:docname="florentine_final.svg"
   inkscape:version="0.92.1 r15371"><metadata
     id="metadata8871"><rdf:RDF><cc:Work
         rdf:about=""><dc:format>image/svg+xml</dc:format><dc:type
           rdf:resource="http://purl.org/dc/dcmitype/StillImage" /><dc:title></dc:title></cc:Work></rdf:RDF></metadata><defs
     id="defs8869"><clipPath
       clipPathUnits="userSpaceOnUse"
       id="clipPath8879"><path
         d="M 0,0 H 355 V 236 H 0 Z"
         id="path8877"
         inkscape:connector-curvature="0" /></clipPath><clipPath
       clipPathUnits="userSpaceOnUse"
       id="clipPath8885"><path
         d="M 0,0 V 236 H 355 V 0 Z"
         id="path8883"
         inkscape:connector-curvature="0" /></clipPath><clipPath
       clipPathUnits="userSpaceOnUse"
       id="clipPath8895"><path
         d="M 0,0 H 355 V 236 H 0 Z"
         id="path8893"
         inkscape:connector-curvature="0" /></clipPath><linearGradient
       inkscape:collect="always"
       xlink:href="#linearGradient7595"
       id="linearGradient7599"
       gradientUnits="userSpaceOnUse"
       x1="378.3334"
       y1="261.28604"
       x2="501.17859"
       y2="261.28604"
       gradientTransform="matrix(1.0410585,0,0,1.0410585,53.226755,-38.730916)" /><linearGradient
       inkscape:collect="always"
       id="linearGradient7595"><stop
         style="stop-color:#000000;stop-opacity:1;"
         offset="0"
         id="stop7591" /><stop
         style="stop-color:#99ff00;stop-opacity:1"
         offset="1"
         id="stop7593" /></linearGradient></defs><sodipodi:namedview
     pagecolor="#ffffff"
     bordercolor="#666666"
     borderopacity="1"
     objecttolerance="10"
     gridtolerance="10"
     guidetolerance="10"
     inkscape:pageopacity="0"
     inkscape:pageshadow="2"
     inkscape:window-width="1366"
     inkscape:window-height="705"
     id="namedview8867"
     showgrid="false"
     inkscape:zoom="0.50821741"
     inkscape:cx="876.5934"
     inkscape:cy="527.33337"
     inkscape:window-x="-8"
     inkscape:window-y="-8"
     inkscape:window-maximized="1"
     inkscape:current-layer="g8873" /><g
     id="g8873"
     inkscape:groupmode="layer"
     inkscape:label="florentine (2)"
     transform="matrix(2.0845066,0,0,2.0845066,26.666666,281.36156)"><path
       inkscape:connector-curvature="0"
       id="path8889"
       style="fill:#ffffff;fill-opacity:1;fill-rule:nonzero;stroke:none"
       d="M 25.486544,-74.571741 H 380.48654 V 161.42826 H 25.486544 Z" /><path
       inkscape:connector-curvature="0"
       id="path8899"
       style="fill:none;stroke:#930001;stroke-width:1.99302006;stroke-linecap:square;stroke-linejoin:miter;stroke-miterlimit:10;stroke-dasharray:none;stroke-opacity:1"
       d="M 59.864272,201.13792 37.503185,98.833553" /><path
       inkscape:connector-curvature="0"
       id="path8901"
       style="fill:none;stroke:#930001;stroke-width:1.99302006;stroke-linecap:square;stroke-linejoin:miter;stroke-miterlimit:10;stroke-dasharray:none;stroke-opacity:1"
       d="m 122.84783,97.944606 24.33459,45.053364" /><path
       inkscape:connector-curvature="0"
       id="path8903"
       style="fill:none;stroke:#930001;stroke-width:1.99302006;stroke-linecap:square;stroke-linejoin:miter;stroke-miterlimit:10;stroke-dasharray:none;stroke-opacity:1"
       d="M 182.86551,211.17983 147.18242,142.99797" /><path
       inkscape:connector-curvature="0"
       id="path8905"
       style="fill:none;stroke:#930001;stroke-width:1.99302006;stroke-linecap:square;stroke-linejoin:miter;stroke-miterlimit:10;stroke-dasharray:none;stroke-opacity:1"
       d="M 59.864272,201.13792 147.18242,142.99797" /><path
       inkscape:connector-curvature="0"
       id="path8907"
       style="fill:none;stroke:#c0c0c0;stroke-width:1.99302006;stroke-linecap:square;stroke-linejoin:miter;stroke-miterlimit:10;stroke-dasharray:none;stroke-opacity:1"
       d="M 215.00237,114.36056 213.00938,67.015616" /><path
       inkscape:connector-curvature="0"
       id="path8909"
       style="fill:none;stroke:#000000;stroke-width:1.99302006;stroke-linecap:square;stroke-linejoin:miter;stroke-miterlimit:10;stroke-dasharray:none;stroke-opacity:1"
       d="m 122.84783,97.944606 90.16155,-30.92899" /><path
       inkscape:connector-curvature="0"
       id="path8911"
       style="fill:none;stroke:#c0c0c0;stroke-width:1.99302006;stroke-linecap:square;stroke-linejoin:miter;stroke-miterlimit:10;stroke-dasharray:none;stroke-opacity:1"
       d="M 59.864272,201.13792 213.00938,67.015616" /><path
       inkscape:connector-curvature="0"
       id="path8913"
       style="fill:none;stroke:#000000;stroke-width:1.99302006;stroke-linecap:square;stroke-linejoin:miter;stroke-miterlimit:10;stroke-dasharray:none;stroke-opacity:1"
       d="M 346.53392,97.420412 213.00938,67.015616" /><path
       inkscape:connector-curvature="0"
       id="path8915"
       style="fill:none;stroke:#c0c0c0;stroke-width:1.99302006;stroke-linecap:square;stroke-linejoin:miter;stroke-miterlimit:10;stroke-dasharray:none;stroke-opacity:1"
       d="m 182.86551,211.17983 112.33924,2.24391" /><path
       inkscape:connector-curvature="0"
       id="path8917"
       style="fill:none;stroke:#000000;stroke-width:1.99302006;stroke-linecap:square;stroke-linejoin:miter;stroke-miterlimit:10;stroke-dasharray:none;stroke-opacity:1"
       d="m 349.59261,167.43415 -54.38786,45.98959" /><path
       inkscape:connector-curvature="0"
       id="path8919"
       style="fill:none;stroke:#c0c0c0;stroke-width:1.99302006;stroke-linecap:square;stroke-linejoin:miter;stroke-miterlimit:10;stroke-dasharray:none;stroke-opacity:1"
       d="M 346.53392,97.420412 295.20475,213.42374" /><path
       inkscape:connector-curvature="0"
       id="path8921"
       style="fill:none;stroke:#930001;stroke-width:1.99302006;stroke-linecap:square;stroke-linejoin:miter;stroke-miterlimit:10;stroke-dasharray:none;stroke-opacity:1"
       d="m 220.01888,160.61246 75.18587,52.81128" /><path
       inkscape:connector-curvature="0"
       id="path8923"
       style="fill:none;stroke:#000000;stroke-width:1.99302006;stroke-linecap:square;stroke-linejoin:miter;stroke-miterlimit:10;stroke-dasharray:none;stroke-opacity:1"
       d="M 349.59261,167.43415 215.00237,114.36056" /><path
       inkscape:connector-curvature="0"
       id="path8925"
       style="fill:none;stroke:#c0c0c0;stroke-width:1.99302006;stroke-linecap:square;stroke-linejoin:miter;stroke-miterlimit:10;stroke-dasharray:none;stroke-opacity:1"
       d="M 346.53392,97.420412 215.00237,114.36056" /><path
       inkscape:connector-curvature="0"
       id="path8927"
       style="fill:none;stroke:#930001;stroke-width:1.99302006;stroke-linecap:square;stroke-linejoin:miter;stroke-miterlimit:10;stroke-dasharray:none;stroke-opacity:1"
       d="m 220.01888,160.61246 -5.01651,-46.2519" /><path
       inkscape:connector-curvature="0"
       id="path8929"
       style="fill:none;stroke:#000000;stroke-width:1.99302006;stroke-linecap:square;stroke-linejoin:miter;stroke-miterlimit:10;stroke-dasharray:none;stroke-opacity:1"
       d="M 59.864272,201.13792 122.84783,97.944606" /><path
       inkscape:connector-curvature="0"
       id="path8931"
       style="fill:none;stroke:#c0c0c0;stroke-width:1.99302006;stroke-linecap:square;stroke-linejoin:miter;stroke-miterlimit:10;stroke-dasharray:none;stroke-opacity:1"
       d="m 349.59261,167.43415 -166.7271,43.74568" /><path
       inkscape:connector-curvature="0"
       id="path8933"
       style="fill:none;stroke:#930001;stroke-width:1.99302006;stroke-linecap:square;stroke-linejoin:miter;stroke-miterlimit:10;stroke-dasharray:none;stroke-opacity:1"
       d="m 103.66902,229.67299 79.19649,-18.49316" /><path
       inkscape:connector-curvature="0"
       id="path8935"
       style="fill:none;stroke:#000000;stroke-width:1.99302006;stroke-linecap:square;stroke-linejoin:miter;stroke-miterlimit:10;stroke-dasharray:none;stroke-opacity:1"
       d="m 346.53392,97.420412 3.05869,70.013738" /><path
       inkscape:connector-curvature="0"
       id="path8937"
       style="fill:none;stroke:#000000;stroke-width:1.99302006;stroke-linecap:square;stroke-linejoin:miter;stroke-miterlimit:10;stroke-dasharray:none;stroke-opacity:1"
       d="M 6.7660239,208.24994 59.864272,201.13792" /><path
       inkscape:connector-curvature="0"
       id="path8939"
       style="fill:none;stroke:#930001;stroke-width:1.99302006;stroke-linecap:square;stroke-linejoin:miter;stroke-miterlimit:10;stroke-dasharray:none;stroke-opacity:1"
       d="M 123.4333,179.73233 59.864272,201.13792" /><path
       inkscape:connector-curvature="0"
       id="path8941"
       style="fill:none;stroke:#c0c0c0;stroke-width:1.99302006;stroke-linecap:square;stroke-linejoin:miter;stroke-miterlimit:10;stroke-dasharray:none;stroke-opacity:1"
       d="M 4.2925366,159.94651 59.864272,201.13792" /><path
       inkscape:connector-curvature="0"
       id="path8943"
       style="fill:none;stroke:#c0c0c0;stroke-width:1.99302006;stroke-linecap:square;stroke-linejoin:miter;stroke-miterlimit:10;stroke-dasharray:none;stroke-opacity:1"
       d="M 103.66902,229.67299 59.864272,201.13792" /><path
       inkscape:connector-curvature="0"
       id="path8945"
       style="fill:none;stroke:#930001;stroke-width:1.99302006;stroke-linecap:square;stroke-linejoin:miter;stroke-miterlimit:10;stroke-dasharray:none;stroke-opacity:1"
       d="m 4.2925366,159.94651 2.4734873,48.30343" /><path
       inkscape:connector-curvature="0"
       id="path8947"
       style="fill:none;stroke:#930001;stroke-width:1.99302006;stroke-linecap:square;stroke-linejoin:miter;stroke-miterlimit:10;stroke-dasharray:none;stroke-opacity:1"
       d="M 220.01888,160.61246 346.53392,97.420412" /><path
       inkscape:connector-curvature="0"
       id="path8949"
       style="fill:none;stroke:#930001;stroke-width:1.99302006;stroke-linecap:square;stroke-linejoin:miter;stroke-miterlimit:10;stroke-dasharray:none;stroke-opacity:1"
       d="M 220.01888,160.61246 123.4333,179.73233" /><path
       inkscape:connector-curvature="0"
       id="path8951"
       style="fill:none;stroke:#930001;stroke-width:1.99302006;stroke-linecap:square;stroke-linejoin:miter;stroke-miterlimit:10;stroke-dasharray:none;stroke-opacity:1"
       d="M 103.66902,229.67299 123.4333,179.73233" /><g
       transform="matrix(0.99651,0,0,-0.99651,50.82201,102.95321)"
       id="g8953"><text
         id="text8957"
         style="font-variant:normal;font-weight:normal;font-size:12px;font-family:Helvetica;-inkscape-font-specification:Helvetica;writing-mode:lr-tb;fill:#000000;fill-opacity:1;fill-rule:nonzero;stroke:none"
         transform="matrix(1,0,0,-1,79.30422,0)"><tspan
           id="tspan8955"
           sodipodi:role="line"
           y="0"
           x="0 9.3360004 12 18.672001 25.344 29.34">Ginori</tspan></text>
</g><path
       inkscape:connector-curvature="0"
       id="path8959"
       style="fill:#000000;fill-opacity:1;fill-rule:nonzero;stroke:none;stroke-width:0.99651003"
       d="m 127.35818,97.944546 c 0,2.490964 -2.01939,4.510414 -4.51035,4.510414 -2.49097,0 -4.51036,-2.01945 -4.51036,-4.510414 0,-2.490956 2.01939,-4.510313 4.51036,-4.510313 2.49096,0 4.51035,2.019357 4.51035,4.510313 z" /><path
       inkscape:connector-curvature="0"
       id="path8961"
       style="fill:none;stroke:#000000;stroke-width:0.99651003;stroke-linecap:square;stroke-linejoin:miter;stroke-miterlimit:10;stroke-dasharray:none;stroke-opacity:1"
       d="m 127.35818,97.944546 c 0,2.490964 -2.01939,4.510414 -4.51035,4.510414 -2.49097,0 -4.51036,-2.01945 -4.51036,-4.510414 0,-2.490956 2.01939,-4.510313 4.51036,-4.510313 2.49096,0 4.51035,2.019357 4.51035,4.510313 z" /><g
       transform="matrix(0.99651,0,0,-0.99651,50.82201,73.34491)"
       id="g8963"><text
         id="text8967"
         style="font-variant:normal;font-weight:normal;font-size:12px;font-family:Helvetica;-inkscape-font-specification:Helvetica;writing-mode:lr-tb;fill:#000000;fill-opacity:1;fill-rule:nonzero;stroke:none"
         transform="matrix(1,0,0,-1,171.10683,0)"><tspan
           id="tspan8965"
           sodipodi:role="line"
           y="0"
           x="0 8.0039997 14.676 18.672001 25.344 32.015999 38.688 45.360001 49.355999">Barbadori</tspan></text>
</g><path
       inkscape:connector-curvature="0"
       id="path8969"
       style="fill:#000000;fill-opacity:1;fill-rule:nonzero;stroke:none;stroke-width:0.99651003"
       d="m 218.8404,67.015467 c 0,3.220451 -2.61073,5.831188 -5.83101,5.831188 -3.22032,0 -5.83104,-2.610737 -5.83104,-5.831188 0,-3.220402 2.61072,-5.830869 5.83104,-5.830869 3.22028,0 5.83101,2.610467 5.83101,5.830869 z" /><path
       inkscape:connector-curvature="0"
       id="path8971"
       style="fill:none;stroke:#000000;stroke-width:0.99651003;stroke-linecap:square;stroke-linejoin:miter;stroke-miterlimit:10;stroke-dasharray:none;stroke-opacity:1"
       d="m 218.8404,67.015467 c 0,3.220451 -2.61073,5.831188 -5.83101,5.831188 -3.22032,0 -5.83104,-2.610737 -5.83104,-5.831188 0,-3.220402 2.61072,-5.830869 5.83104,-5.830869 3.22028,0 5.83101,2.610467 5.83101,5.830869 z" /><g
       transform="matrix(0.99651,0,0,-0.99651,50.82201,173.05521)"
       id="g8973"><text
         id="text8977"
         style="font-variant:normal;font-weight:normal;font-size:12px;font-family:Helvetica;-inkscape-font-specification:Helvetica;writing-mode:lr-tb;fill:#000000;fill-opacity:1;fill-rule:nonzero;stroke:none"
         transform="matrix(1,0,0,-1,307.4577,0)"><tspan
           id="tspan8975"
           sodipodi:role="line"
           y="0"
           x="0 6.6719999 13.344 23.34 30.011999 36.683998 40.68 44.015999 50.688 56.688 62.688 69.360001">Lamberteschi</tspan></text>
</g><path
       inkscape:connector-curvature="0"
       id="path8979"
       style="fill:#000000;fill-opacity:1;fill-rule:nonzero;stroke:none;stroke-width:0.99651003"
       d="m 354.71541,167.43412 c 0,2.8292 -2.2936,5.12284 -5.1228,5.12284 -2.82924,0 -5.12284,-2.29364 -5.12284,-5.12284 0,-2.82917 2.2936,-5.12281 5.12284,-5.12281 2.8292,0 5.1228,2.29364 5.1228,5.12281 z" /><path
       inkscape:connector-curvature="0"
       id="path8981"
       style="fill:none;stroke:#000000;stroke-width:0.99651003;stroke-linecap:square;stroke-linejoin:miter;stroke-miterlimit:10;stroke-dasharray:none;stroke-opacity:1"
       d="m 354.71541,167.43412 c 0,2.8292 -2.2936,5.12284 -5.1228,5.12284 -2.82924,0 -5.12284,-2.29364 -5.12284,-5.12284 0,-2.82917 2.2936,-5.12281 5.12284,-5.12281 2.8292,0 5.1228,2.29364 5.1228,5.12281 z" /><g
       transform="matrix(0.99651,0,0,-0.99651,50.82201,102.11435)"
       id="g8983"><text
         id="text8987"
         style="font-variant:normal;font-weight:normal;font-size:12px;font-family:Helvetica;-inkscape-font-specification:Helvetica;writing-mode:lr-tb;fill:#000000;fill-opacity:1;fill-rule:nonzero;stroke:none"
         transform="matrix(1,0,0,-1,-8.07318,0)"><tspan
           id="tspan8985"
           sodipodi:role="line"
           y="0"
           x="0 8.0039997 14.004 20.004 22.667999 29.34 32.004002 38.675999 45.348 48.012001">Acciaiuoli</tspan></text>
</g><path
       inkscape:connector-curvature="0"
       id="path8989"
       style="fill:#249200;fill-opacity:1;fill-rule:nonzero;stroke:none;stroke-width:0.99651003"
       d="m 40.28573,98.833463 c 0,1.536817 -1.245816,2.782637 -2.782535,2.782637 -1.536728,0 -2.782544,-1.24582 -2.782544,-2.782637 0,-1.536658 1.245816,-2.782435 2.782544,-2.782435 1.536719,0 2.782535,1.245777 2.782535,2.782435 z" /><path
       inkscape:connector-curvature="0"
       id="path8991"
       style="fill:none;stroke:#000000;stroke-width:0.99651003;stroke-linecap:square;stroke-linejoin:miter;stroke-miterlimit:10;stroke-dasharray:none;stroke-opacity:1"
       d="m 40.28573,98.833463 c 0,1.536817 -1.245816,2.782637 -2.782535,2.782637 -1.536728,0 -2.782544,-1.24582 -2.782544,-2.782637 0,-1.536658 1.245816,-2.782435 2.782544,-2.782435 1.536719,0 2.782535,1.245777 2.782535,2.782435 z" /><g
       transform="matrix(0.99651,0,0,-0.99651,50.82201,163.22729)"
       id="g8993"><text
         id="text8997"
         style="font-variant:normal;font-weight:normal;font-size:12px;font-family:Helvetica;-inkscape-font-specification:Helvetica;writing-mode:lr-tb;fill:#000000;fill-opacity:1;fill-rule:nonzero;stroke:none"
         transform="matrix(1,0,0,-1,-41.40015,0)"><tspan
           id="tspan8995"
           sodipodi:role="line"
           y="0"
           x="0 8.0039997 14.676 17.34 23.34 26.004 32.675999 36.012001">Salviati</tspan></text>
</g><path
       inkscape:connector-curvature="0"
       id="path8999"
       style="fill:#186000;fill-opacity:1;fill-rule:nonzero;stroke:none;stroke-width:0.99651003"
       d="m 7.0750715,159.94645 c 0,1.53674 -1.245787,2.78259 -2.7825349,2.78259 -1.536748,0 -2.7825449,-1.24585 -2.7825449,-2.78259 0,-1.53673 1.2457969,-2.78248 2.7825449,-2.78248 1.5367479,0 2.7825349,1.24575 2.7825349,2.78248 z" /><path
       inkscape:connector-curvature="0"
       id="path9001"
       style="fill:none;stroke:#000000;stroke-width:0.99651003;stroke-linecap:square;stroke-linejoin:miter;stroke-miterlimit:10;stroke-dasharray:none;stroke-opacity:1"
       d="m 7.0750715,159.94645 c 0,1.53674 -1.245787,2.78259 -2.7825349,2.78259 -1.536748,0 -2.7825449,-1.24585 -2.7825449,-2.78259 0,-1.53673 1.2457969,-2.78248 2.7825449,-2.78248 1.5367479,0 2.7825349,1.24575 2.7825349,2.78248 z" /><g
       transform="matrix(0.99651,0,0,-0.99651,50.82201,214.20835)"
       id="g9003"><text
         id="text9007"
         style="font-variant:normal;font-weight:normal;font-size:12px;font-family:Helvetica;-inkscape-font-specification:Helvetica;writing-mode:lr-tb;fill:#000000;fill-opacity:1;fill-rule:nonzero;stroke:none"
         transform="matrix(1,0,0,-1,-36.231,0)"><tspan
           id="tspan9005"
           sodipodi:role="line"
           y="0"
           x="0 8.0039997 14.676 20.676001 26.676001">Pazzi</tspan></text>
</g><path
       inkscape:connector-curvature="0"
       id="path9009"
       style="fill:#000000;fill-opacity:1;fill-rule:nonzero;stroke:none;stroke-width:0.99651003"
       d="m 12.226181,208.24994 c 0,3.0155 -2.4446182,5.46016 -5.4601472,5.46016 -3.0155389,0 -5.4601573,-2.44466 -5.4601573,-5.46016 0,-3.0155 2.4446184,-5.46016 5.4601573,-5.46016 3.015529,0 5.4601472,2.44466 5.4601472,5.46016 z" /><path
       inkscape:connector-curvature="0"
       id="path9011"
       style="fill:none;stroke:#000000;stroke-width:0.99651003;stroke-linecap:square;stroke-linejoin:miter;stroke-miterlimit:10;stroke-dasharray:none;stroke-opacity:1"
       d="m 12.226181,208.24994 c 0,3.0155 -2.4446182,5.46016 -5.4601472,5.46016 -3.0155389,0 -5.4601573,-2.44466 -5.4601573,-5.46016 0,-3.0155 2.4446184,-5.46016 5.4601573,-5.46016 3.015529,0 5.4601472,2.44466 5.4601472,5.46016 z" /><g
       transform="matrix(0.99651,0,0,-0.99651,50.82201,209.58241)"
       id="g9013"><text
         id="text9017"
         style="font-variant:normal;font-weight:normal;font-size:12px;font-family:Helvetica;-inkscape-font-specification:Helvetica;writing-mode:lr-tb;fill:#000000;fill-opacity:1;fill-rule:nonzero;stroke:none"
         transform="matrix(1,0,0,-1,19.54798,0)"><tspan
           id="tspan9015"
           sodipodi:role="line"
           y="0"
           x="0 9.9960003 16.667999 23.34 26.004 32.004002">Medici</tspan></text>
</g><path
       inkscape:connector-curvature="0"
       id="path9019"
       style="fill:#249200;fill-opacity:1;fill-rule:nonzero;stroke:none;stroke-width:0.99651003"
       d="m 67.810493,201.13795 c 0,4.38856 -3.557681,7.9462 -7.946211,7.9462 -4.38854,0 -7.946221,-3.55764 -7.946221,-7.9462 0,-4.38856 3.557681,-7.94623 7.946221,-7.94623 4.38853,0 7.946211,3.55767 7.946211,7.94623 z" /><path
       inkscape:connector-curvature="0"
       id="path9021"
       style="fill:none;stroke:#000000;stroke-width:0.99651003;stroke-linecap:square;stroke-linejoin:miter;stroke-miterlimit:10;stroke-dasharray:none;stroke-opacity:1"
       d="m 67.810493,201.13795 c 0,4.38856 -3.557681,7.9462 -7.946211,7.9462 -4.38854,0 -7.946221,-3.55764 -7.946221,-7.9462 0,-4.38856 3.557681,-7.94623 7.946221,-7.94623 4.38853,0 7.946211,3.55767 7.946211,7.94623 z" /><g
       transform="matrix(0.99651,0,0,-0.99651,50.82201,235.6314)"
       id="g9023"><text
         id="text9027"
         style="font-variant:normal;font-weight:normal;font-size:12px;font-family:Helvetica;-inkscape-font-specification:Helvetica;writing-mode:lr-tb;fill:#000000;fill-opacity:1;fill-rule:nonzero;stroke:none"
         transform="matrix(1,0,0,-1,61.01136,0)"><tspan
           id="tspan9025"
           sodipodi:role="line"
           y="0"
           x="0 7.3319998 14.004 18 24.672001 31.344 38.015999 44.688 51.360001 58.032001">Tornabuoni</tspan></text>
</g><path
       inkscape:connector-curvature="0"
       id="path9029"
       style="fill:#000000;fill-opacity:1;fill-rule:nonzero;stroke:none;stroke-width:0.99651003"
       d="m 109.12917,229.67302 c 0,3.01553 -2.44467,5.46012 -5.46017,5.46012 -3.01551,0 -5.460139,-2.44459 -5.460139,-5.46012 0,-3.01554 2.444629,-5.46018 5.460139,-5.46018 3.0155,0 5.46017,2.44464 5.46017,5.46018 z" /><path
       inkscape:connector-curvature="0"
       id="path9031"
       style="fill:none;stroke:#000000;stroke-width:0.99651003;stroke-linecap:square;stroke-linejoin:miter;stroke-miterlimit:10;stroke-dasharray:none;stroke-opacity:1"
       d="m 109.12917,229.67302 c 0,3.01553 -2.44467,5.46012 -5.46017,5.46012 -3.01551,0 -5.460139,-2.44459 -5.460139,-5.46012 0,-3.01554 2.444629,-5.46018 5.460139,-5.46018 3.0155,0 5.46017,2.44464 5.46017,5.46018 z" /><g
       transform="matrix(0.99651,0,0,-0.99651,50.82201,214.25579)"
       id="g9033"><text
         id="text9037"
         style="font-variant:normal;font-weight:normal;font-size:12px;font-family:Helvetica;-inkscape-font-specification:Helvetica;writing-mode:lr-tb;fill:#000000;fill-opacity:1;fill-rule:nonzero;stroke:none"
         transform="matrix(1,0,0,-1,137.5927,0)"><tspan
           id="tspan9035"
           sodipodi:role="line"
           y="0"
           x="0 9.3360004 16.007999 22.68 29.351999 36.023998 42.695999 49.368">Guadagni</tspan></text>
</g><path
       inkscape:connector-curvature="0"
       id="path9039"
       style="fill:#0e3900;fill-opacity:1;fill-rule:nonzero;stroke:none;stroke-width:0.99651003"
       d="m 185.44324,211.17983 c 0,1.42361 -1.15412,2.5777 -2.57774,2.5777 -1.42365,0 -2.57769,-1.15409 -2.57769,-2.5777 0,-1.4236 1.15404,-2.5777 2.57769,-2.5777 1.42362,0 2.57774,1.1541 2.57774,2.5777 z" /><path
       inkscape:connector-curvature="0"
       id="path9041"
       style="fill:none;stroke:#000000;stroke-width:0.99651003;stroke-linecap:square;stroke-linejoin:miter;stroke-miterlimit:10;stroke-dasharray:none;stroke-opacity:1"
       d="m 185.44324,211.17983 c 0,1.42361 -1.15412,2.5777 -2.57774,2.5777 -1.42365,0 -2.57769,-1.15409 -2.57769,-2.5777 0,-1.4236 1.15404,-2.5777 2.57769,-2.5777 1.42362,0 2.57774,1.1541 2.57774,2.5777 z" /><g
       transform="matrix(0.99651,0,0,-0.99651,50.82201,219.15945)"
       id="g9043"><text
         id="text9047"
         style="font-variant:normal;font-weight:normal;font-size:12px;font-family:Helvetica;-inkscape-font-specification:Helvetica;writing-mode:lr-tb;fill:#000000;fill-opacity:1;fill-rule:nonzero;stroke:none"
         transform="matrix(1,0,0,-1,252.99443,0)"><tspan
           id="tspan9045"
           sodipodi:role="line"
           y="0"
           x="0 8.0039997 10.668 16.667999 22.667999 29.34 36.012001 40.007999">Bischeri</tspan></text>
</g><path
       inkscape:connector-curvature="0"
       id="path9049"
       style="fill:#082100;fill-opacity:1;fill-rule:nonzero;stroke:none;stroke-width:0.99651003"
       d="m 300.44221,213.42374 c 0,2.89252 -2.34487,5.23746 -5.2374,5.23746 -2.89252,0 -5.23754,-2.34494 -5.23754,-5.23746 0,-2.89248 2.34502,-5.23744 5.23754,-5.23744 2.89253,0 5.2374,2.34496 5.2374,5.23744 z" /><path
       inkscape:connector-curvature="0"
       id="path9051"
       style="fill:none;stroke:#000000;stroke-width:0.99651003;stroke-linecap:square;stroke-linejoin:miter;stroke-miterlimit:10;stroke-dasharray:none;stroke-opacity:1"
       d="m 300.44221,213.42374 c 0,2.89252 -2.34487,5.23746 -5.2374,5.23746 -2.89252,0 -5.23754,-2.34494 -5.23754,-5.23746 0,-2.89248 2.34502,-5.23744 5.23754,-5.23744 2.89253,0 5.2374,2.34496 5.2374,5.23744 z" /><g
       transform="matrix(0.99651,0,0,-0.99651,50.82201,5.2664956)"
       id="g9053"><text
         id="text9057"
         style="font-variant:normal;font-weight:normal;font-size:12px;font-family:Helvetica;-inkscape-font-specification:Helvetica;writing-mode:lr-tb;fill:#000000;fill-opacity:1;fill-rule:nonzero;stroke:none"
         transform="matrix(1,0,0,-1,119.05663,0)"><tspan
           id="tspan9055"
           sodipodi:role="line"
           y="0"
           x="0 8.0039997 14.676 20.676001 26.676001">Pucci</tspan></text>
</g><path
       inkscape:connector-curvature="0"
       id="path9059"
       style="fill:#000000;fill-opacity:1;fill-rule:nonzero;stroke:none;stroke-width:0.99651003"
       d="m 166.97186,2.7752405 c 0,1.1006951 -0.89233,1.9930001 -1.99303,1.9930001 -1.10071,0 -1.99301,-0.892305 -1.99301,-1.9930001 0,-1.1007051 0.8923,-1.99303994 1.99301,-1.99303994 1.1007,0 1.99303,0.89233484 1.99303,1.99303994 z" /><path
       inkscape:connector-curvature="0"
       id="path9061"
       style="fill:none;stroke:#000000;stroke-width:0.99651003;stroke-linecap:square;stroke-linejoin:miter;stroke-miterlimit:10;stroke-dasharray:none;stroke-opacity:1"
       d="m 166.97186,2.7752405 c 0,1.1006951 -0.89233,1.9930001 -1.99303,1.9930001 -1.10071,0 -1.99301,-0.892305 -1.99301,-1.9930001 0,-1.1007051 0.8923,-1.99303994 1.99301,-1.99303994 1.1007,0 1.99303,0.89233484 1.99303,1.99303994 z" /><g
       transform="matrix(0.99651,0,0,-0.99651,50.82201,103.43319)"
       id="g9063"><text
         id="text9067"
         style="font-variant:normal;font-weight:normal;font-size:12px;font-family:Helvetica;-inkscape-font-specification:Helvetica;writing-mode:lr-tb;fill:#000000;fill-opacity:1;fill-rule:nonzero;stroke:none"
         transform="matrix(1,0,0,-1,304.7814,0)"><tspan
           id="tspan9065"
           sodipodi:role="line"
           y="0"
           x="0 8.0039997 14.676 18.672001 25.344 31.344 37.344002">Peruzzi</tspan></text>
</g><path
       inkscape:connector-curvature="0"
       id="path9069"
       style="fill:#1c7300;fill-opacity:1;fill-rule:nonzero;stroke:none;stroke-width:0.99651003"
       d="m 352.04845,97.420352 c 0,3.045608 -2.46902,5.514588 -5.51462,5.514588 -3.04542,0 -5.51445,-2.46898 -5.51445,-5.514588 0,-3.045534 2.46903,-5.514477 5.51445,-5.514477 3.0456,0 5.51462,2.468943 5.51462,5.514477 z" /><path
       inkscape:connector-curvature="0"
       id="path9071"
       style="fill:none;stroke:#000000;stroke-width:0.99651003;stroke-linecap:square;stroke-linejoin:miter;stroke-miterlimit:10;stroke-dasharray:none;stroke-opacity:1"
       d="m 352.04845,97.420352 c 0,3.045608 -2.46902,5.514588 -5.51462,5.514588 -3.04542,0 -5.51445,-2.46898 -5.51445,-5.514588 0,-3.045534 2.46903,-5.514477 5.51445,-5.514477 3.0456,0 5.51462,2.468943 5.51462,5.514477 z" /><g
       transform="matrix(0.99651,0,0,-0.99651,50.82201,118.51675)"
       id="g9073"><text
         id="text9077"
         style="font-variant:normal;font-weight:normal;font-size:12px;font-family:Helvetica;-inkscape-font-specification:Helvetica;writing-mode:lr-tb;fill:#000000;fill-opacity:1;fill-rule:nonzero;stroke:none"
         transform="matrix(1,0,0,-1,170.9261,0)"><tspan
           id="tspan9075"
           sodipodi:role="line"
           y="0"
           x="0 8.6639996 15.336 21.336 24.672001 31.344 34.007999 36.672001 43.344002 50.015999">Castellani</tspan></text>
</g><path
       inkscape:connector-curvature="0"
       id="path9079"
       style="fill:#0f3c00;fill-opacity:1;fill-rule:nonzero;stroke:none;stroke-width:0.99651003"
       d="m 218.6603,114.36041 c 0,2.02021 -1.63818,3.65808 -3.65819,3.65808 -2.01999,0 -3.65768,-1.63787 -3.65768,-3.65808 0,-2.0199 1.63769,-3.65779 3.65768,-3.65779 2.02001,0 3.65819,1.63789 3.65819,3.65779 z" /><path
       inkscape:connector-curvature="0"
       id="path9081"
       style="fill:none;stroke:#000000;stroke-width:0.99651003;stroke-linecap:square;stroke-linejoin:miter;stroke-miterlimit:10;stroke-dasharray:none;stroke-opacity:1"
       d="m 218.6603,114.36041 c 0,2.02021 -1.63818,3.65808 -3.65819,3.65808 -2.01999,0 -3.65768,-1.63787 -3.65768,-3.65808 0,-2.0199 1.63769,-3.65779 3.65768,-3.65779 2.02001,0 3.65819,1.63789 3.65819,3.65779 z" /><g
       transform="matrix(0.99651,0,0,-0.99651,50.82201,170.57756)"
       id="g9083"><text
         id="text9087"
         style="font-variant:normal;font-weight:normal;font-size:12px;font-family:Helvetica;-inkscape-font-specification:Helvetica;writing-mode:lr-tb;fill:#000000;fill-opacity:1;fill-rule:nonzero;stroke:none"
         transform="matrix(1,0,0,-1,181.78944,0)"><tspan
           id="tspan9085"
           sodipodi:role="line"
           y="0"
           x="0 8.0039997 11.34 15.336 22.007999 28.007999 34.007999">Strozzi</tspan></text>
</g><path
       inkscape:connector-curvature="0"
       id="path9089"
       style="fill:#33cc00;fill-opacity:1;fill-rule:nonzero;stroke:none;stroke-width:0.99651003"
       d="m 229.48573,160.61246 c 0,5.22836 -4.23857,9.46684 -9.46685,9.46684 -5.22827,0 -9.46684,-4.23848 -9.46684,-9.46684 0,-5.22837 4.23857,-9.46685 9.46684,-9.46685 5.22828,0 9.46685,4.23848 9.46685,9.46685 z" /><path
       inkscape:connector-curvature="0"
       id="path9091"
       style="fill:none;stroke:#000000;stroke-width:0.99651003;stroke-linecap:square;stroke-linejoin:miter;stroke-miterlimit:10;stroke-dasharray:none;stroke-opacity:1"
       d="m 229.48573,160.61246 c 0,5.22836 -4.23857,9.46684 -9.46685,9.46684 -5.22827,0 -9.46684,-4.23848 -9.46684,-9.46684 0,-5.22837 4.23857,-9.46685 9.46684,-9.46685 5.22828,0 9.46685,4.23848 9.46685,9.46685 z" /><g
       transform="matrix(0.99651,0,0,-0.99651,50.82201,148.26015)"
       id="g9093"><text
         id="text9097"
         style="font-variant:normal;font-weight:normal;font-size:12px;font-family:Helvetica;-inkscape-font-specification:Helvetica;writing-mode:lr-tb;fill:#000000;fill-opacity:1;fill-rule:nonzero;stroke:none"
         transform="matrix(1,0,0,-1,103.97848,0)"><tspan
           id="tspan9095"
           sodipodi:role="line"
           y="0"
           x="0 8.0039997 10.668 17.34 20.004 26.004 32.004002">Albizzi</tspan></text>
</g><path
       inkscape:connector-curvature="0"
       id="path9099"
       style="fill:#2cb300;fill-opacity:1;fill-rule:nonzero;stroke:none;stroke-width:0.99651003"
       d="m 151.94633,142.99788 c 0,2.63102 -2.13291,4.76401 -4.76389,4.76401 -2.631,0 -4.76392,-2.13299 -4.76392,-4.76401 0,-2.63099 2.13292,-4.76381 4.76392,-4.76381 2.63098,0 4.76389,2.13282 4.76389,4.76381 z" /><path
       inkscape:connector-curvature="0"
       id="path9101"
       style="fill:none;stroke:#000000;stroke-width:0.99651003;stroke-linecap:square;stroke-linejoin:miter;stroke-miterlimit:10;stroke-dasharray:none;stroke-opacity:1"
       d="m 151.94633,142.99788 c 0,2.63102 -2.13291,4.76401 -4.76389,4.76401 -2.631,0 -4.76392,-2.13299 -4.76392,-4.76401 0,-2.63099 2.13292,-4.76381 4.76392,-4.76381 2.63098,0 4.76389,2.13282 4.76389,4.76381 z" /><g
       transform="matrix(0.99651,0,0,-0.99651,50.82201,184.40468)"
       id="g9103"><text
         id="text9107"
         style="font-variant:normal;font-weight:normal;font-size:12px;font-family:Helvetica;-inkscape-font-specification:Helvetica;writing-mode:lr-tb;fill:#000000;fill-opacity:1;fill-rule:nonzero;stroke:none"
         transform="matrix(1,0,0,-1,79.55433,0)"><tspan
           id="tspan9105"
           sodipodi:role="line"
           y="0"
           x="0 8.6639996 11.328 18 24.672001 27.336 30.672001">Ridolfi</tspan></text>
</g><path
       inkscape:connector-curvature="0"
       id="path9109"
       style="fill:#1a6800;fill-opacity:1;fill-rule:nonzero;stroke:none;stroke-width:0.99651003"
       d="m 127.60742,179.73226 c 0,2.30534 -1.86882,4.17417 -4.17412,4.17417 -2.3053,0 -4.17412,-1.86883 -4.17412,-4.17417 0,-2.30528 1.86882,-4.17407 4.17412,-4.17407 2.3053,0 4.17412,1.86879 4.17412,4.17407 z" /><path
       inkscape:connector-curvature="0"
       id="path9111"
       style="fill:none;stroke:#000000;stroke-width:0.99651003;stroke-linecap:square;stroke-linejoin:miter;stroke-miterlimit:10;stroke-dasharray:none;stroke-opacity:1"
       d="m 127.60742,179.73226 c 0,2.30534 -1.86882,4.17417 -4.17412,4.17417 -2.3053,0 -4.17412,-1.86883 -4.17412,-4.17417 0,-2.30528 1.86882,-4.17407 4.17412,-4.17407 2.3053,0 4.17412,1.86879 4.17412,4.17407 z" /><text
       xml:space="preserve"
       style="font-style:normal;font-weight:normal;font-size:19.18919373px;line-height:1.25;font-family:sans-serif;letter-spacing:0px;word-spacing:0px;fill:#000000;fill-opacity:1;stroke:none;stroke-width:0.47972983"
       x="437.97388"
       y="112.93308"
       id="text6914"><tspan
         sodipodi:role="line"
         id="tspan6912"
         x="437.97388"
         y="112.93308"
         style="font-size:11.51351643px;stroke-width:0.47972983">Node Size and Color</tspan></text>
<text
       xml:space="preserve"
       style="font-style:normal;font-weight:normal;font-size:19.18919373px;line-height:1.25;font-family:sans-serif;letter-spacing:0px;word-spacing:0px;fill:#000000;fill-opacity:1;stroke:none;stroke-width:0.47972983"
       x="595.74463"
       y="110.96517"
       id="text6918"><tspan
         sodipodi:role="line"
         id="tspan6916"
         x="595.74463"
         y="110.96517"
         style="font-size:11.51351643px;stroke-width:0.47972983">Edge Color</tspan></text>
<text
       xml:space="preserve"
       style="font-style:normal;font-weight:normal;font-size:19.18919373px;line-height:1.25;font-family:sans-serif;letter-spacing:0px;word-spacing:0px;fill:#000000;fill-opacity:1;stroke:none;stroke-width:0.47972983"
       x="439.08954"
       y="126.10381"
       id="text6922"><tspan
         sodipodi:role="line"
         id="tspan6920"
         x="439.08954"
         y="126.10381"
         style="font-size:8.95495701px;fill:#4d4d4d;stroke-width:0.47972983">Wealth (Thousands of Lira)</tspan></text>
<text
       xml:space="preserve"
       style="font-style:normal;font-weight:normal;font-size:19.18919373px;line-height:1.25;font-family:sans-serif;letter-spacing:0px;word-spacing:0px;fill:#000000;fill-opacity:1;stroke:none;stroke-width:0.47972983"
       x="597.68146"
       y="126.79336"
       id="text6926"><tspan
         sodipodi:role="line"
         id="tspan6924"
         x="597.68146"
         y="126.79336"
         style="font-size:8.95495701px;fill:#666666;stroke-width:0.47972983">Relationship Type</tspan></text>
<text
       xml:space="preserve"
       style="font-style:normal;font-weight:normal;font-size:19.18919373px;line-height:1.25;font-family:sans-serif;letter-spacing:0px;word-spacing:0px;fill:#000000;fill-opacity:1;stroke:none;stroke-width:0.47972983"
       x="446.56741"
       y="214.66577"
       id="text6930"><tspan
         sodipodi:role="line"
         id="tspan6928"
         x="446.56741"
         y="214.66577"
         style="font-size:8.95495701px;fill:#4d4d4d;stroke-width:0.47972983">Number of Government Seats (Priorates)</tspan></text>
<path
       inkscape:connector-curvature="0"
       id="path6292-7"
       style="fill:none;fill-opacity:1;stroke:#000000;stroke-width:1.03808105;stroke-linecap:square;stroke-linejoin:miter;stroke-miterlimit:10;stroke-dasharray:none;stroke-opacity:1"
       d="m 463.80005,160.08228 c -5.4371,0.31864 -10.1032,-3.83081 -10.42183,-9.26791 -0.31865,-5.43705 3.8308,-10.1032 9.2679,-10.42184 5.43712,-0.31865 10.10321,3.83086 10.42184,9.26791 0.31865,5.43709 -3.83079,10.1032 -9.26791,10.42184 z" /><path
       inkscape:connector-curvature="0"
       id="path6282-6"
       style="fill:none;stroke:#000000;stroke-width:1.03808105;stroke-linecap:square;stroke-linejoin:miter;stroke-miterlimit:10;stroke-dasharray:none;stroke-opacity:1"
       d="m 463.80005,160.08228 c -1.14468,0.067 -2.12698,-0.80649 -2.19407,-1.95113 -0.067,-1.14466 0.80645,-2.12699 1.95114,-2.19408 1.14465,-0.0671 2.12699,0.80649 2.19408,1.95113 0.067,1.14466 -0.8065,2.127 -1.95115,2.19408 z"
       inkscape:transform-center-y="0.08409111"
       inkscape:transform-center-x="1.4348657" /><path
       inkscape:connector-curvature="0"
       id="path6332-6"
       style="fill:none;stroke:#000000;stroke-width:1.03808105;stroke-linecap:square;stroke-linejoin:miter;stroke-miterlimit:10;stroke-dasharray:none;stroke-opacity:1"
       d="m 463.80005,160.08227 c -2.39737,0.1405 -4.45471,-1.68908 -4.59521,-4.08644 -0.1405,-2.39732 1.68906,-4.45467 4.08642,-4.59517 2.39733,-0.14049 4.45469,1.68906 4.59518,4.08638 0.1405,2.39736 -1.68906,4.45474 -4.08639,4.59523 z"
       inkscape:transform-center-x="30.842206"
       inkscape:transform-center-y="161.62494" /><text
       xml:space="preserve"
       style="font-style:normal;font-weight:normal;font-size:19.18919373px;line-height:1.25;font-family:sans-serif;letter-spacing:0px;word-spacing:0px;fill:#000000;fill-opacity:1;stroke:none;stroke-width:0.47972983"
       x="479.08228"
       y="144.72115"
       id="text7576"><tspan
         sodipodi:role="line"
         id="tspan7574"
         x="479.08228"
         y="144.72115"
         style="font-size:6.39639807px;stroke-width:0.47972983">146</tspan></text>
<text
       xml:space="preserve"
       style="font-style:normal;font-weight:normal;font-size:19.18919373px;line-height:1.25;font-family:sans-serif;letter-spacing:0px;word-spacing:0px;fill:#000000;fill-opacity:1;stroke:none;stroke-width:0.47972983"
       x="479.77185"
       y="153.68501"
       id="text7580"><tspan
         sodipodi:role="line"
         id="tspan7578"
         x="479.77185"
         y="153.68501"
         style="font-size:6.39639807px;stroke-width:0.47972983">27</tspan></text>
<text
       xml:space="preserve"
       style="font-style:normal;font-weight:normal;font-size:19.18919373px;line-height:1.25;font-family:sans-serif;letter-spacing:0px;word-spacing:0px;fill:#000000;fill-opacity:1;stroke:none;stroke-width:0.47972983"
       x="480.46133"
       y="161.26987"
       id="text7584"
       inkscape:transform-center-y="5.7493226"><tspan
         sodipodi:role="line"
         id="tspan7582"
         x="480.46133"
         y="161.26987"
         style="font-size:6.39639807px;stroke-width:0.47972983">3</tspan></text>
<rect
       style="fill:url(#linearGradient7599);fill-opacity:1;stroke:#000000;stroke-width:1.70495975;stroke-miterlimit:10;stroke-dasharray:none;stroke-opacity:1"
       id="rect7589"
       width="126.18407"
       height="22.064972"
       x="447.94647"
       y="222.25063" /><rect
       style="fill:#b9babc;fill-opacity:1;stroke:none;stroke-width:1.70495975;stroke-miterlimit:10;stroke-dasharray:none;stroke-opacity:1"
       id="rect7609"
       width="37.234638"
       height="12.411548"
       x="599.75006"
       y="134.37819" /><rect
       style="fill:#000000;fill-opacity:1;stroke:none;stroke-width:1.70495975;stroke-miterlimit:10;stroke-dasharray:none;stroke-opacity:1"
       id="rect7611"
       width="37.234638"
       height="11.722017"
       x="600.43964"
       y="158.51173" /><text
       xml:space="preserve"
       style="font-style:normal;font-weight:normal;font-size:19.18919373px;line-height:1.25;font-family:sans-serif;letter-spacing:0px;word-spacing:0px;fill:#000000;fill-opacity:1;stroke:none;stroke-width:0.47972983"
       x="639.99725"
       y="191.73775"
       id="text7615"><tspan
         sodipodi:role="line"
         id="tspan7613"
         x="639.99725"
         y="191.73775"
         style="font-size:7.03603745px;stroke-width:0.47972983">Marriage Tie</tspan></text>
<text
       xml:space="preserve"
       style="font-style:normal;font-weight:normal;font-size:19.18919373px;line-height:1.25;font-family:sans-serif;letter-spacing:0px;word-spacing:0px;fill:#000000;fill-opacity:1;stroke:none;stroke-width:0.47972983"
       x="641.63068"
       y="167.47563"
       id="text7619"><tspan
         sodipodi:role="line"
         id="tspan7617"
         x="641.63068"
         y="167.47563"
         style="font-size:7.03603745px;stroke-width:0.47972983">Business Tie</tspan></text>
<rect
       style="fill:#a02c2c;fill-opacity:1;stroke:none;stroke-width:1.70495975;stroke-miterlimit:10;stroke-dasharray:none;stroke-opacity:1"
       id="rect7609-4"
       width="37.234638"
       height="12.411548"
       x="599.14581"
       y="182.28731" /><text
       xml:space="preserve"
       style="font-style:normal;font-weight:normal;font-size:19.18919373px;line-height:1.25;font-family:sans-serif;letter-spacing:0px;word-spacing:0px;fill:#000000;fill-opacity:1;stroke:none;stroke-width:0.47972983"
       x="640.41791"
       y="141.59866"
       id="text10380"><tspan
         sodipodi:role="line"
         id="tspan10378"
         x="640.41791"
         y="141.59866"
         style="font-size:7.03603745px;stroke-width:0.47972983">Marriage and Business Ties</tspan></text>
<text
       xml:space="preserve"
       style="font-style:normal;font-weight:normal;font-size:36.47160339px;line-height:1.25;font-family:sans-serif;letter-spacing:0px;word-spacing:0px;fill:#000000;fill-opacity:1;stroke:none;stroke-width:0.91179001"
       x="109.68746"
       y="-39.333221"
       id="text7623"
       transform="scale(0.76729992,1.3032713)"><tspan
         sodipodi:role="line"
         id="tspan7621"
         x="109.68746"
         y="-39.333221"
         style="stroke-width:0.91179001;fill:#008000">Visualization of the Florentine families</tspan></text>
<text
       xml:space="preserve"
       style="font-style:normal;font-weight:normal;font-size:22.32339096px;line-height:1.25;font-family:sans-serif;letter-spacing:0px;word-spacing:0px;fill:#000000;fill-opacity:1;stroke:none;stroke-width:0.55808479"
       x="5.9633708"
       y="412.90176"
       id="text10404"
       transform="scale(1.1633314,0.85960028)"><tspan
         sodipodi:role="line"
         id="tspan10402"
         x="5.9633708"
         y="412.90176"
         style="font-style:italic;font-variant:normal;font-weight:normal;font-stretch:normal;font-size:8.92935658px;font-family:sans-serif;-inkscape-font-specification:'sans-serif Italic';stroke-width:0.55808479">Note: Data Source: Sci2</tspan></text>
</g></svg>