<?xml version="1.0" encoding="UTF-8" standalone="no"?>
<!-- Created with Inkscape (http://www.inkscape.org/) -->

<svg
   xmlns:dc="http://purl.org/dc/elements/1.1/"
   xmlns:cc="http://creativecommons.org/ns#"
   xmlns:rdf="http://www.w3.org/1999/02/22-rdf-syntax-ns#"
   xmlns:svg="http://www.w3.org/2000/svg"
   xmlns="http://www.w3.org/2000/svg"
   xmlns:xlink="http://www.w3.org/1999/xlink"
   xmlns:sodipodi="http://sodipodi.sourceforge.net/DTD/sodipodi-0.dtd"
   xmlns:inkscape="http://www.inkscape.org/namespaces/inkscape"
   version="1.1"
   id="svg6116"
   xml:space="preserve"
   width="1500"
   height="1054.6667"
   viewBox="0 0 1500 1054.6667"
   sodipodi:docname="florentine_final.svg"
   inkscape:version="0.92.1 r15371"><metadata
     id="metadata6122"><rdf:RDF><cc:Work
         rdf:about=""><dc:format>image/svg+xml</dc:format><dc:type
           rdf:resource="http://purl.org/dc/dcmitype/StillImage" /><dc:title></dc:title></cc:Work></rdf:RDF></metadata><defs
     id="defs6120"><linearGradient
       inkscape:collect="always"
       id="linearGradient7595"><stop
         style="stop-color:#000000;stop-opacity:1;"
         offset="0"
         id="stop7591" /><stop
         style="stop-color:#99ff00;stop-opacity:1"
         offset="1"
         id="stop7593" /></linearGradient><clipPath
       clipPathUnits="userSpaceOnUse"
       id="clipPath6130"><path
         d="M 0,0 H 341 V 328 H 0 Z"
         id="path6128"
         inkscape:connector-curvature="0" /></clipPath><clipPath
       clipPathUnits="userSpaceOnUse"
       id="clipPath6136"><path
         d="M 0,0 V 328 H 341 V 0 Z"
         id="path6134"
         inkscape:connector-curvature="0" /></clipPath><clipPath
       clipPathUnits="userSpaceOnUse"
       id="clipPath6146"><path
         d="M 0,0 H 341 V 328 H 0 Z"
         id="path6144"
         inkscape:connector-curvature="0" /></clipPath><linearGradient
       inkscape:collect="always"
       xlink:href="#linearGradient7595"
       id="linearGradient7599"
       gradientUnits="userSpaceOnUse"
       x1="378.33339"
       y1="261.28603"
       x2="501.17858"
       y2="261.28603"
       gradientTransform="translate(-11.564916,-73.266522)" /></defs><sodipodi:namedview
     pagecolor="#ffffff"
     bordercolor="#666666"
     borderopacity="1"
     objecttolerance="10"
     gridtolerance="10"
     guidetolerance="10"
     inkscape:pageopacity="0"
     inkscape:pageshadow="2"
     inkscape:window-width="1366"
     inkscape:window-height="705"
     id="namedview6118"
     showgrid="false"
     inkscape:zoom="0.86"
     inkscape:cx="849.65217"
     inkscape:cy="565.48663"
     inkscape:window-x="-8"
     inkscape:window-y="-8"
     inkscape:window-maximized="1"
     inkscape:current-layer="g6124" /><g
     id="g6124"
     inkscape:groupmode="layer"
     inkscape:label="florentine (1)"
     transform="matrix(2.1700933,0,0,2.1700933,26.666666,171.43896)"><path
       inkscape:connector-curvature="0"
       id="path6140"
       style="fill:#ffffff;fill-opacity:1;fill-rule:nonzero;stroke:none;stroke-width:1.15898335"
       d="M -273.00525,14.685741 H 141.51402 V 377.1272 h -414.51927 z" /><path
       inkscape:connector-curvature="0"
       id="path6150"
       style="fill:none;stroke:#b0b2b4;stroke-width:1.99427998;stroke-linecap:square;stroke-linejoin:miter;stroke-miterlimit:10;stroke-dasharray:none;stroke-opacity:1"
       d="m 161.56342,120.39015 -42.22069,8.22461" /><path
       inkscape:connector-curvature="0"
       id="path6152"
       style="fill:none;stroke:#b0b2b4;stroke-width:1.99427998;stroke-linecap:square;stroke-linejoin:miter;stroke-miterlimit:10;stroke-dasharray:none;stroke-opacity:1"
       d="m 193.19479,157.64535 37.56667,-0.12519" /><path
       inkscape:connector-curvature="0"
       id="path6154"
       style="fill:none;stroke:#b0b2b4;stroke-width:1.99427998;stroke-linecap:square;stroke-linejoin:miter;stroke-miterlimit:10;stroke-dasharray:none;stroke-opacity:1"
       d="m 269.20735,118.18912 -38.44589,39.33104" /><path
       inkscape:connector-curvature="0"
       id="path6156"
       style="fill:none;stroke:#b0b2b4;stroke-width:1.99427998;stroke-linecap:square;stroke-linejoin:miter;stroke-miterlimit:10;stroke-dasharray:none;stroke-opacity:1"
       d="m 161.56342,120.39015 69.19804,37.13001" /><path
       inkscape:connector-curvature="0"
       id="path6158"
       style="fill:none;stroke:#000000;stroke-width:1.99427998;stroke-linecap:square;stroke-linejoin:miter;stroke-miterlimit:10;stroke-dasharray:none;stroke-opacity:1"
       d="m 244.33273,94.022412 -31.02034,5.365351" /><path
       inkscape:connector-curvature="0"
       id="path6160"
       style="fill:none;stroke:#000000;stroke-width:1.99427998;stroke-linecap:square;stroke-linejoin:miter;stroke-miterlimit:10;stroke-dasharray:none;stroke-opacity:1"
       d="m 193.19479,157.64535 20.1176,-58.257587" /><path
       inkscape:connector-curvature="0"
       id="path6162"
       style="fill:none;stroke:#000000;stroke-width:1.99427998;stroke-linecap:square;stroke-linejoin:miter;stroke-miterlimit:10;stroke-dasharray:none;stroke-opacity:1"
       d="M 161.56342,120.39015 213.31239,99.387763" /><path
       inkscape:connector-curvature="0"
       id="path6164"
       style="fill:none;stroke:#000000;stroke-width:1.99427998;stroke-linecap:square;stroke-linejoin:miter;stroke-miterlimit:10;stroke-dasharray:none;stroke-opacity:1"
       d="M 276.88242,44.28823 213.31239,99.387763" /><path
       inkscape:connector-curvature="0"
       id="path6166"
       style="fill:none;stroke:#000000;stroke-width:1.99427998;stroke-linecap:square;stroke-linejoin:miter;stroke-miterlimit:10;stroke-dasharray:none;stroke-opacity:1"
       d="M 269.20735,118.18912 304.35557,63.395357" /><path
       inkscape:connector-curvature="0"
       id="path6168"
       style="fill:none;stroke:#000000;stroke-width:1.99427998;stroke-linecap:square;stroke-linejoin:miter;stroke-miterlimit:10;stroke-dasharray:none;stroke-opacity:1"
       d="m 306.65396,90.073777 -2.29839,-26.67842" /><path
       inkscape:connector-curvature="0"
       id="path6170"
       style="fill:none;stroke:#000000;stroke-width:1.99427998;stroke-linecap:square;stroke-linejoin:miter;stroke-miterlimit:10;stroke-dasharray:none;stroke-opacity:1"
       d="m 276.88242,44.28823 27.47315,19.107127" /><path
       inkscape:connector-curvature="0"
       id="path6172"
       style="fill:none;stroke:#b0b2b4;stroke-width:1.99427998;stroke-linecap:square;stroke-linejoin:miter;stroke-miterlimit:10;stroke-dasharray:none;stroke-opacity:1"
       d="M 200.13878,69.751276 304.35557,63.395357" /><path
       inkscape:connector-curvature="0"
       id="path6174"
       style="fill:none;stroke:#000000;stroke-width:1.99427998;stroke-linecap:square;stroke-linejoin:miter;stroke-miterlimit:10;stroke-dasharray:none;stroke-opacity:1"
       d="m 306.65396,90.073777 -62.32123,3.948635" /><path
       inkscape:connector-curvature="0"
       id="path6176"
       style="fill:none;stroke:#000000;stroke-width:1.99427998;stroke-linecap:square;stroke-linejoin:miter;stroke-miterlimit:10;stroke-dasharray:none;stroke-opacity:1"
       d="M 276.88242,44.28823 244.33273,94.022412" /><path
       inkscape:connector-curvature="0"
       id="path6178"
       style="fill:none;stroke:#b0b2b4;stroke-width:1.99427998;stroke-linecap:square;stroke-linejoin:miter;stroke-miterlimit:10;stroke-dasharray:none;stroke-opacity:1"
       d="m 200.13878,69.751276 44.19395,24.271136" /><path
       inkscape:connector-curvature="0"
       id="path6180"
       style="fill:none;stroke:#000000;stroke-width:1.99427998;stroke-linecap:square;stroke-linejoin:miter;stroke-miterlimit:10;stroke-dasharray:none;stroke-opacity:1"
       d="m 161.56342,120.39015 31.63137,37.2552" /><path
       inkscape:connector-curvature="0"
       id="path6182"
       style="fill:none;stroke:#000000;stroke-width:1.99427998;stroke-linecap:square;stroke-linejoin:miter;stroke-miterlimit:10;stroke-dasharray:none;stroke-opacity:1"
       d="M 306.65396,90.073777 269.20735,118.18912" /><path
       inkscape:connector-curvature="0"
       id="path6184"
       style="fill:none;stroke:#b0b2b4;stroke-width:1.99427998;stroke-linecap:square;stroke-linejoin:miter;stroke-miterlimit:10;stroke-dasharray:none;stroke-opacity:1"
       d="m 218.74462,124.81266 50.46273,-6.62354" /><path
       inkscape:connector-curvature="0"
       id="path6186"
       style="fill:none;stroke:#000000;stroke-width:1.99427998;stroke-linecap:square;stroke-linejoin:miter;stroke-miterlimit:10;stroke-dasharray:none;stroke-opacity:1"
       d="m 276.88242,44.28823 29.77154,45.785547" /><path
       inkscape:connector-curvature="0"
       id="path6188"
       style="fill:none;stroke:#000000;stroke-width:1.99427998;stroke-linecap:square;stroke-linejoin:miter;stroke-miterlimit:10;stroke-dasharray:none;stroke-opacity:1"
       d="m 153.68122,190.12533 7.8822,-69.73518" /><path
       inkscape:connector-curvature="0"
       id="path6190"
       style="fill:none;stroke:#b0b2b4;stroke-width:1.99427998;stroke-linecap:square;stroke-linejoin:miter;stroke-miterlimit:10;stroke-dasharray:none;stroke-opacity:1"
       d="M 172.30731,91.138683 161.56342,120.39015" /><path
       inkscape:connector-curvature="0"
       id="path6192"
       style="fill:none;stroke:#000000;stroke-width:1.99427998;stroke-linecap:square;stroke-linejoin:miter;stroke-miterlimit:10;stroke-dasharray:none;stroke-opacity:1"
       d="m 128.31699,168.50036 33.24643,-48.11021" /><path
       inkscape:connector-curvature="0"
       id="path6194"
       style="fill:none;stroke:#000000;stroke-width:1.99427998;stroke-linecap:square;stroke-linejoin:miter;stroke-miterlimit:10;stroke-dasharray:none;stroke-opacity:1"
       d="m 218.74462,124.81266 -57.1812,-4.42251" /><path
       inkscape:connector-curvature="0"
       id="path6196"
       style="fill:none;stroke:#b0b2b4;stroke-width:1.99427998;stroke-linecap:square;stroke-linejoin:miter;stroke-miterlimit:10;stroke-dasharray:none;stroke-opacity:1"
       d="m 128.31699,168.50036 25.36423,21.62497" /><path
       inkscape:connector-curvature="0"
       id="path6198"
       style="fill:none;stroke:#b0b2b4;stroke-width:1.99427998;stroke-linecap:square;stroke-linejoin:miter;stroke-miterlimit:10;stroke-dasharray:none;stroke-opacity:1"
       d="M 200.13878,69.751276 276.88242,44.28823" /><path
       inkscape:connector-curvature="0"
       id="path6200"
       style="fill:none;stroke:#b0b2b4;stroke-width:1.99427998;stroke-linecap:square;stroke-linejoin:miter;stroke-miterlimit:10;stroke-dasharray:none;stroke-opacity:1"
       d="M 200.13878,69.751276 172.30731,91.138683" /><path
       inkscape:connector-curvature="0"
       id="path6202"
       style="fill:none;stroke:#b0b2b4;stroke-width:1.99427998;stroke-linecap:square;stroke-linejoin:miter;stroke-miterlimit:10;stroke-dasharray:none;stroke-opacity:1"
       d="M 218.74462,124.81266 172.30731,91.138683" /><g
       transform="matrix(0.99714,0,0,-0.99714,116.05986,131.89764)"
       id="g6204"><text
         id="text6208"
         style="font-variant:normal;font-weight:normal;font-size:5px;font-family:Helvetica;-inkscape-font-specification:Helvetica;writing-mode:lr-tb;fill:#000000;fill-opacity:1;fill-rule:nonzero;stroke:none"
         transform="matrix(1,0,0,-1,8.58458,0)"><tspan
           id="tspan6206"
           sodipodi:role="line"
           y="0"
           x="0 3.335 5.835 8.335 9.4449997 12.225 13.335 16.115 18.895 20.004999">Acciaiuoli</tspan></text>
</g><path
       inkscape:connector-curvature="0"
       id="path6210"
       style="fill:#6db600;fill-opacity:1;fill-rule:nonzero;stroke:none;stroke-width:0.99713999"
       d="m 122.12703,128.61474 c 0,1.53775 -1.24658,2.78433 -2.78429,2.78433 -1.53773,0 -2.78431,-1.24658 -2.78431,-2.78433 0,-1.5377 1.24658,-2.78428 2.78431,-2.78428 1.53771,0 2.78429,1.24658 2.78429,2.78428 z" /><path
       inkscape:connector-curvature="0"
       id="path6212"
       style="fill:none;stroke:#6db600;stroke-width:0.99713999;stroke-linecap:square;stroke-linejoin:miter;stroke-miterlimit:10;stroke-dasharray:none;stroke-opacity:1"
       d="m 122.12703,128.61474 c 0,1.53775 -1.24658,2.78433 -2.78429,2.78433 -1.53773,0 -2.78431,-1.24658 -2.78431,-2.78433 0,-1.5377 1.24658,-2.78428 2.78431,-2.78428 1.53771,0 2.78429,1.24658 2.78429,2.78428 z" /><g
       transform="matrix(0.99714,0,0,-0.99714,116.05986,162.78565)"
       id="g6214"><text
         id="text6218"
         style="font-variant:normal;font-weight:normal;font-size:5px;font-family:Helvetica;-inkscape-font-specification:Helvetica;writing-mode:lr-tb;fill:#000000;fill-opacity:1;fill-rule:nonzero;stroke:none"
         transform="matrix(1,0,0,-1,122.31118,0)"><tspan
           id="tspan6216"
           sodipodi:role="line"
           y="0"
           x="0 3.335 4.4450002 7.2249999 8.335 10.835 13.335">Albizzi</tspan></text>
</g><path
       inkscape:connector-curvature="0"
       id="path6220"
       style="fill:#86df00;fill-opacity:1;fill-rule:nonzero;stroke:none;stroke-width:0.99713999"
       d="m 235.52838,157.52014 c 0,2.63268 -2.13425,4.76694 -4.76693,4.76694 -2.63266,0 -4.76691,-2.13426 -4.76691,-4.76694 0,-2.63267 2.13425,-4.7669 4.76691,-4.7669 2.63268,0 4.76693,2.13423 4.76693,4.7669 z" /><path
       inkscape:connector-curvature="0"
       id="path6222"
       style="fill:none;stroke:#86df00;stroke-width:0.99713999;stroke-linecap:square;stroke-linejoin:miter;stroke-miterlimit:10;stroke-dasharray:none;stroke-opacity:1"
       d="m 235.52838,157.52014 c 0,2.63268 -2.13425,4.76694 -4.76693,4.76694 -2.63266,0 -4.76691,-2.13426 -4.76691,-4.76694 0,-2.63267 2.13425,-4.7669 4.76691,-4.7669 2.63268,0 4.76693,2.13423 4.76693,4.7669 z" /><g
       transform="matrix(0.99714,0,0,-0.99714,116.05986,121.26703)"
       id="g6224"><text
         id="text6228"
         style="font-variant:normal;font-weight:normal;font-size:5px;font-family:Helvetica;-inkscape-font-specification:Helvetica;writing-mode:lr-tb;fill:#000000;fill-opacity:1;fill-rule:nonzero;stroke:none"
         transform="matrix(1,0,0,-1,158.67348,0)"><tspan
           id="tspan6226"
           sodipodi:role="line"
           y="0"
           x="0 3.8900001 6.6700001 9.4499998 12.23 15.01 17.790001 20.57">Guadagni</tspan></text>
</g><path
       inkscape:connector-curvature="0"
       id="path6230"
       style="fill:#2b4800;fill-opacity:1;fill-rule:nonzero;stroke:none;stroke-width:0.99713999"
       d="m 271.78668,118.1891 c 0,1.42453 -1.15481,2.57936 -2.57935,2.57936 -1.42451,0 -2.57933,-1.15483 -2.57933,-2.57936 0,-1.4245 1.15482,-2.57932 2.57933,-2.57932 1.42454,0 2.57935,1.15482 2.57935,2.57932 z" /><path
       inkscape:connector-curvature="0"
       id="path6232"
       style="fill:none;stroke:#2b4800;stroke-width:0.99713999;stroke-linecap:square;stroke-linejoin:miter;stroke-miterlimit:10;stroke-dasharray:none;stroke-opacity:1"
       d="m 271.78668,118.1891 c 0,1.42453 -1.15481,2.57936 -2.57935,2.57936 -1.42451,0 -2.57933,-1.15483 -2.57933,-2.57936 0,-1.4245 1.15482,-2.57932 2.57933,-2.57932 1.42454,0 2.57935,1.15482 2.57935,2.57932 z" /><g
       transform="matrix(0.99714,0,0,-0.99714,116.05986,95.698405)"
       id="g6234"><text
         id="text6238"
         style="font-variant:normal;font-weight:normal;font-size:5px;font-family:Helvetica;-inkscape-font-specification:Helvetica;writing-mode:lr-tb;fill:#000000;fill-opacity:1;fill-rule:nonzero;stroke:none"
         transform="matrix(1,0,0,-1,198.78152,0)"><tspan
           id="tspan6236"
           sodipodi:role="line"
           y="0"
           x="0 2.78 5.5599999 9.7250004 12.505 15.285 16.950001 18.34 21.120001 23.620001 26.120001 28.9">Lamberteschi</tspan></text>
</g><path
       inkscape:connector-curvature="0"
       id="path6240"
       style="fill:#000000;fill-opacity:1;fill-rule:nonzero;stroke:none;stroke-width:0.99713999"
       d="m 311.78001,90.073767 c 0,2.831021 -2.29507,5.126068 -5.12605,5.126068 -2.83102,0 -5.12606,-2.295047 -5.12606,-5.126068 0,-2.83102 2.29504,-5.126047 5.12606,-5.126047 2.83098,0 5.12605,2.295027 5.12605,5.126047 z" /><path
       inkscape:connector-curvature="0"
       id="path6242"
       style="fill:none;stroke:#000000;stroke-width:0.99713999;stroke-linecap:square;stroke-linejoin:miter;stroke-miterlimit:10;stroke-dasharray:none;stroke-opacity:1"
       d="m 311.78001,90.073767 c 0,2.831021 -2.29507,5.126068 -5.12605,5.126068 -2.83102,0 -5.12606,-2.295047 -5.12606,-5.126068 0,-2.83102 2.29504,-5.126047 5.12606,-5.126047 2.83098,0 5.12605,2.295027 5.12605,5.126047 z" /><g
       transform="matrix(0.99714,0,0,-0.99714,116.05986,196.08751)"
       id="g6244"><text
         id="text6248"
         style="font-variant:normal;font-weight:normal;font-size:5px;font-family:Helvetica;-inkscape-font-specification:Helvetica;writing-mode:lr-tb;fill:#000000;fill-opacity:1;fill-rule:nonzero;stroke:none"
         transform="matrix(1,0,0,-1,45.70855,0)"><tspan
           id="tspan6246"
           sodipodi:role="line"
           y="0"
           x="0 3.335 6.1149998 8.6149998 11.115">Pazzi</tspan></text>
</g><path
       inkscape:connector-curvature="0"
       id="path6250"
       style="fill:#000000;fill-opacity:1;fill-rule:nonzero;stroke:none;stroke-width:0.99713999"
       d="m 159.14483,190.12533 c 0,3.01743 -2.44616,5.46361 -5.46361,5.46361 -3.01742,0 -5.4636,-2.44618 -5.4636,-5.46361 0,-3.01744 2.44618,-5.46361 5.4636,-5.46361 3.01745,0 5.46361,2.44617 5.46361,5.46361 z" /><path
       inkscape:connector-curvature="0"
       id="path6252"
       style="fill:none;stroke:#000000;stroke-width:0.99713999;stroke-linecap:square;stroke-linejoin:miter;stroke-miterlimit:10;stroke-dasharray:none;stroke-opacity:1"
       d="m 159.14483,190.12533 c 0,3.01743 -2.44616,5.46361 -5.46361,5.46361 -3.01742,0 -5.4636,-2.44618 -5.4636,-5.46361 0,-3.01744 2.44618,-5.46361 5.4636,-5.46361 3.01745,0 5.46361,2.44617 5.46361,5.46361 z" /><g
       transform="matrix(0.99714,0,0,-0.99714,116.05986,171.78324)"
       id="g6254"><text
         id="text6258"
         style="font-variant:normal;font-weight:normal;font-size:5px;font-family:Helvetica;-inkscape-font-specification:Helvetica;writing-mode:lr-tb;fill:#000000;fill-opacity:1;fill-rule:nonzero;stroke:none"
         transform="matrix(1,0,0,-1,17.58458,0)"><tspan
           id="tspan6256"
           sodipodi:role="line"
           y="0"
           x="0 3.335 6.1149998 7.2249999 9.7250004 10.835 13.615 15.005">Salviati</tspan></text>
</g><path
       inkscape:connector-curvature="0"
       id="path6260"
       style="fill:#487800;fill-opacity:1;fill-rule:nonzero;stroke:none;stroke-width:0.99713999"
       d="m 131.10129,168.50037 c 0,1.53772 -1.24661,2.7843 -2.78429,2.7843 -1.5377,0 -2.78431,-1.24658 -2.78431,-2.7843 0,-1.53774 1.24661,-2.78431 2.78431,-2.78431 1.53768,0 2.78429,1.24657 2.78429,2.78431 z" /><path
       inkscape:connector-curvature="0"
       id="path6262"
       style="fill:none;stroke:#487800;stroke-width:0.99713999;stroke-linecap:square;stroke-linejoin:miter;stroke-miterlimit:10;stroke-dasharray:none;stroke-opacity:1"
       d="m 131.10129,168.50037 c 0,1.53772 -1.24661,2.7843 -2.78429,2.7843 -1.5377,0 -2.78431,-1.24658 -2.78431,-2.7843 0,-1.53774 1.24661,-2.78431 2.78431,-2.78431 1.53768,0 2.78429,1.24657 2.78429,2.78431 z" /><g
       transform="matrix(0.99714,0,0,-0.99714,116.05986,130.77483)"
       id="g6264"><text
         id="text6268"
         style="font-variant:normal;font-weight:normal;font-size:5px;font-family:Helvetica;-inkscape-font-specification:Helvetica;writing-mode:lr-tb;fill:#000000;fill-opacity:1;fill-rule:nonzero;stroke:none"
         transform="matrix(1,0,0,-1,110.95855,0)"><tspan
           id="tspan6266"
           sodipodi:role="line"
           y="0"
           x="0 3.0550001 5.835 7.5 10.28 13.06 15.84 18.620001 21.4 24.18">Tornabuoni</tspan></text>
</g><path
       inkscape:connector-curvature="0"
       id="path6270"
       style="fill:#000000;fill-opacity:1;fill-rule:nonzero;stroke:none;stroke-width:0.99713999"
       d="m 224.20822,124.81266 c 0,3.01744 -2.4462,5.4636 -5.4636,5.4636 -3.01741,0 -5.46361,-2.44616 -5.46361,-5.4636 0,-3.01744 2.4462,-5.46361 5.46361,-5.46361 3.0174,0 5.4636,2.44617 5.4636,5.46361 z" /><path
       inkscape:connector-curvature="0"
       id="path6272"
       style="fill:none;stroke:#000000;stroke-width:0.99713999;stroke-linecap:square;stroke-linejoin:miter;stroke-miterlimit:10;stroke-dasharray:none;stroke-opacity:1"
       d="m 224.20822,124.81266 c 0,3.01744 -2.4462,5.4636 -5.4636,5.4636 -3.01741,0 -5.46361,-2.44616 -5.46361,-5.4636 0,-3.01744 2.4462,-5.46361 5.46361,-5.46361 3.0174,0 5.4636,2.44617 5.4636,5.46361 z" /><g
       transform="matrix(0.99714,0,0,-0.99714,-56.527259,187.4854)"
       id="g6274"><text
         id="text6278"
         style="font-variant:normal;font-weight:normal;font-size:5px;font-family:Helvetica;-inkscape-font-specification:Helvetica;writing-mode:lr-tb;fill:#000000;fill-opacity:1;fill-rule:nonzero;stroke:none"
         transform="matrix(1,0,0,-1,343,0)"><tspan
           id="tspan6276"
           sodipodi:role="line"
           y="0"
           x="0 3.335 6.1149998 8.6149998 11.115">Pucci</tspan></text>
</g><path
       inkscape:connector-curvature="0"
       id="path6280"
       style="fill:#000000;fill-opacity:1;fill-rule:nonzero;stroke:none;stroke-width:0.99713999"
       d="m 282.99891,184.99254 c 0,1.10143 -0.89289,1.99428 -1.99428,1.99428 -1.10139,0 -1.99428,-0.89285 -1.99428,-1.99428 0,-1.10139 0.89289,-1.99428 1.99428,-1.99428 1.10139,0 1.99428,0.89289 1.99428,1.99428 z" /><path
       inkscape:connector-curvature="0"
       id="path6282"
       style="fill:none;stroke:#000000;stroke-width:0.99713999;stroke-linecap:square;stroke-linejoin:miter;stroke-miterlimit:10;stroke-dasharray:none;stroke-opacity:1"
       d="m 282.99891,184.99254 c 0,1.10143 -0.89289,1.99428 -1.99428,1.99428 -1.10139,0 -1.99428,-0.89285 -1.99428,-1.99428 0,-1.10139 0.89289,-1.99428 1.99428,-1.99428 1.10139,0 1.99428,0.89289 1.99428,1.99428 z" /><g
       transform="matrix(0.99714,0,0,-0.99714,96.852119,85.021363)"
       id="g6284"><text
         id="text6288"
         style="font-variant:normal;font-weight:normal;font-size:5px;font-family:Helvetica;-inkscape-font-specification:Helvetica;writing-mode:lr-tb;fill:#000000;fill-opacity:1;fill-rule:nonzero;stroke:none"
         transform="matrix(1,0,0,-1,96.32008,0)"><tspan
           id="tspan6286"
           sodipodi:role="line"
           y="0"
           x="0 3.335 4.7249999 6.3899999 9.1700001 11.67 14.17">Strozzi</tspan></text>
</g><path
       inkscape:connector-curvature="0"
       id="path6290"
       style="fill:#99ff00;fill-opacity:1;fill-rule:nonzero;stroke:none;stroke-width:0.99713999"
       d="m 209.61161,69.751276 c 0,5.231635 -4.24121,9.47283 -9.47283,9.47283 -5.23158,0 -9.47283,-4.241195 -9.47283,-9.47283 0,-5.231634 4.24125,-9.47283 9.47283,-9.47283 5.23162,0 9.47283,4.241196 9.47283,9.47283 z" /><path
       inkscape:connector-curvature="0"
       id="path6292"
       style="fill:none;stroke:#99ff00;stroke-width:0.99713999;stroke-linecap:square;stroke-linejoin:miter;stroke-miterlimit:10;stroke-dasharray:none;stroke-opacity:1"
       d="m 209.61161,69.751276 c 0,5.231635 -4.24121,9.47283 -9.47283,9.47283 -5.23158,0 -9.47283,-4.241195 -9.47283,-9.47283 0,-5.231634 4.24125,-9.47283 9.47283,-9.47283 5.23162,0 9.47283,4.241196 9.47283,9.47283 z" /><g
       transform="matrix(0.99714,0,0,-0.99714,116.05986,128.83997)"
       id="g6294"><text
         id="text6298"
         style="font-variant:normal;font-weight:normal;font-size:5px;font-family:Helvetica;-inkscape-font-specification:Helvetica;writing-mode:lr-tb;fill:#000000;fill-opacity:1;fill-rule:nonzero;stroke:none"
         transform="matrix(1,0,0,-1,56.10812,0)"><tspan
           id="tspan6296"
           sodipodi:role="line"
           y="0"
           x="0 4.165 6.9450002 9.7250004 10.835 13.335">Medici</tspan></text>
</g><path
       inkscape:connector-curvature="0"
       id="path6300"
       style="fill:#6db600;fill-opacity:1;fill-rule:nonzero;stroke:none;stroke-width:0.99713999"
       d="m 169.51466,120.39016 c 0,4.39132 -3.5599,7.95124 -7.95123,7.95124 -4.3913,0 -7.95125,-3.55992 -7.95125,-7.95124 0,-4.39133 3.55995,-7.95124 7.95125,-7.95124 4.39133,0 7.95123,3.55991 7.95123,7.95124 z" /><path
       inkscape:connector-curvature="0"
       id="path6302"
       style="fill:none;stroke:#6db600;stroke-width:0.99713999;stroke-linecap:square;stroke-linejoin:miter;stroke-miterlimit:10;stroke-dasharray:none;stroke-opacity:1"
       d="m 169.51466,120.39016 c 0,4.39132 -3.5599,7.95124 -7.95123,7.95124 -4.3913,0 -7.95125,-3.55992 -7.95125,-7.95124 0,-4.39133 3.55995,-7.95124 7.95125,-7.95124 4.39133,0 7.95123,3.55991 7.95123,7.95124 z" /><g
       transform="matrix(0.99714,0,0,-0.99714,116.05986,162.65713)"
       id="g6304"><text
         id="text6308"
         style="font-variant:normal;font-weight:normal;font-size:5px;font-family:Helvetica;-inkscape-font-specification:Helvetica;writing-mode:lr-tb;fill:#000000;fill-opacity:1;fill-rule:nonzero;stroke:none"
         transform="matrix(1,0,0,-1,84.38232,0)"><tspan
           id="tspan6306"
           sodipodi:role="line"
           y="0"
           x="0 3.8900001 5 7.7800002 10.56 12.225">Ginori</tspan></text>
</g><path
       inkscape:connector-curvature="0"
       id="path6310"
       style="fill:#000000;fill-opacity:1;fill-rule:nonzero;stroke:none;stroke-width:0.99713999"
       d="m 197.70799,157.64537 c 0,2.49254 -2.02069,4.51319 -4.51322,4.51319 -2.49251,0 -4.51319,-2.02065 -4.51319,-4.51319 0,-2.49252 2.02068,-4.51323 4.51319,-4.51323 2.49253,0 4.51322,2.02071 4.51322,4.51323 z" /><path
       inkscape:connector-curvature="0"
       id="path6312"
       style="fill:none;stroke:#000000;stroke-width:0.99713999;stroke-linecap:square;stroke-linejoin:miter;stroke-miterlimit:10;stroke-dasharray:none;stroke-opacity:1"
       d="m 197.70799,157.64537 c 0,2.49254 -2.02069,4.51319 -4.51322,4.51319 -2.49251,0 -4.51319,-2.02065 -4.51319,-4.51319 0,-2.49252 2.02068,-4.51323 4.51319,-4.51323 2.49253,0 4.51322,2.02071 4.51322,4.51323 z" /><g
       transform="matrix(0.99714,0,0,-0.99714,116.05986,105.72104)"
       id="g6314"><text
         id="text6318"
         style="font-variant:normal;font-weight:normal;font-size:5px;font-family:Helvetica;-inkscape-font-specification:Helvetica;writing-mode:lr-tb;fill:#000000;fill-opacity:1;fill-rule:nonzero;stroke:none"
         transform="matrix(1,0,0,-1,105.88292,0)"><tspan
           id="tspan6316"
           sodipodi:role="line"
           y="0"
           x="0 3.335 6.1149998 7.7800002 10.56 13.34 16.120001 18.9 20.565001">Barbadori</tspan></text>
</g><path
       inkscape:connector-curvature="0"
       id="path6320"
       style="fill:#000000;fill-opacity:1;fill-rule:nonzero;stroke:none;stroke-width:0.99713999"
       d="m 219.1471,99.387743 c 0,3.222407 -2.61235,5.834727 -5.83472,5.834727 -3.22236,0 -5.83471,-2.61232 -5.83471,-5.834727 0,-3.222377 2.61235,-5.834695 5.83471,-5.834695 3.22237,0 5.83472,2.612318 5.83472,5.834695 z" /><path
       inkscape:connector-curvature="0"
       id="path6322"
       style="fill:none;stroke:#000000;stroke-width:0.99713999;stroke-linecap:square;stroke-linejoin:miter;stroke-miterlimit:10;stroke-dasharray:none;stroke-opacity:1"
       d="m 219.1471,99.387743 c 0,3.222407 -2.61235,5.834727 -5.83472,5.834727 -3.22236,0 -5.83471,-2.61232 -5.83471,-5.834727 0,-3.222377 2.61235,-5.834695 5.83471,-5.834695 3.22237,0 5.83472,2.612318 5.83472,5.834695 z" /><g
       transform="matrix(0.99714,0,0,-0.99714,116.05986,95.814013)"
       id="g6324"><text
         id="text6328"
         style="font-variant:normal;font-weight:normal;font-size:5px;font-family:Helvetica;-inkscape-font-specification:Helvetica;writing-mode:lr-tb;fill:#000000;fill-opacity:1;fill-rule:nonzero;stroke:none"
         transform="matrix(1,0,0,-1,63.09752,0)"><tspan
           id="tspan6326"
           sodipodi:role="line"
           y="0"
           x="0 3.6099999 4.7199998 7.5 10.28 11.39 12.78">Ridolfi</tspan></text>
</g><path
       inkscape:connector-curvature="0"
       id="path6330"
       style="fill:#4e8200;fill-opacity:1;fill-rule:nonzero;stroke:none;stroke-width:0.99713999"
       d="m 176.48407,91.138673 c 0,2.306774 -1.87003,4.17677 -4.17679,4.17677 -2.30672,0 -4.17673,-1.869996 -4.17673,-4.17677 0,-2.306734 1.87001,-4.17674 4.17673,-4.17674 2.30676,0 4.17679,1.870006 4.17679,4.17674 z" /><path
       inkscape:connector-curvature="0"
       id="path6332"
       style="fill:none;stroke:#4e8200;stroke-width:0.99713999;stroke-linecap:square;stroke-linejoin:miter;stroke-miterlimit:10;stroke-dasharray:none;stroke-opacity:1"
       d="m 176.48407,91.138673 c 0,2.306774 -1.87003,4.17677 -4.17679,4.17677 -2.30672,0 -4.17673,-1.869996 -4.17673,-4.17677 0,-2.306734 1.87001,-4.17674 4.17673,-4.17674 2.30676,0 4.17679,1.870006 4.17679,4.17674 z" /><g
       transform="matrix(0.99714,0,0,-0.99714,116.05986,98.181234)"
       id="g6334"><text
         id="text6338"
         style="font-variant:normal;font-weight:normal;font-size:5px;font-family:Helvetica;-inkscape-font-specification:Helvetica;writing-mode:lr-tb;fill:#000000;fill-opacity:1;fill-rule:nonzero;stroke:none"
         transform="matrix(1,0,0,-1,134.81152,0)"><tspan
           id="tspan6336"
           sodipodi:role="line"
           y="0"
           x="0 3.6099999 6.3899999 8.8900003 10.28 13.06 14.17 15.28 18.059999 20.84">Castellani</tspan></text>
</g><path
       inkscape:connector-curvature="0"
       id="path6340"
       style="fill:#2d4b00;fill-opacity:1;fill-rule:nonzero;stroke:none;stroke-width:0.99713999"
       d="m 247.99297,94.022402 c 0,2.021452 -1.63871,3.660262 -3.66018,3.660262 -2.02137,0 -3.6603,-1.63881 -3.6603,-3.660262 0,-2.021442 1.63893,-3.660232 3.6603,-3.660232 2.02147,0 3.66018,1.63879 3.66018,3.660232 z" /><path
       inkscape:connector-curvature="0"
       id="path6342"
       style="fill:none;stroke:#2d4b00;stroke-width:0.99713999;stroke-linecap:square;stroke-linejoin:miter;stroke-miterlimit:10;stroke-dasharray:none;stroke-opacity:1"
       d="m 247.99297,94.022402 c 0,2.021452 -1.63871,3.660262 -3.66018,3.660262 -2.02137,0 -3.6603,-1.63881 -3.6603,-3.660262 0,-2.021442 1.63893,-3.660232 3.6603,-3.660232 2.02147,0 3.66018,1.63879 3.66018,3.660232 z" /><g
       transform="matrix(0.99714,0,0,-0.99714,116.05986,69.134705)"
       id="g6344"><text
         id="text6348"
         style="font-variant:normal;font-weight:normal;font-size:5px;font-family:Helvetica;-inkscape-font-specification:Helvetica;writing-mode:lr-tb;fill:#000000;fill-opacity:1;fill-rule:nonzero;stroke:none"
         transform="matrix(1,0,0,-1,196.5916,0)"><tspan
           id="tspan6346"
           sodipodi:role="line"
           y="0"
           x="0 3.335 4.4450002 6.9450002 9.4449997 12.225 15.005 16.67">Bischeri</tspan></text>
</g><path
       inkscape:connector-curvature="0"
       id="path6350"
       style="fill:#182900;fill-opacity:1;fill-rule:nonzero;stroke:none;stroke-width:0.99713999"
       d="m 309.59636,63.395347 c 0,2.894338 -2.34645,5.240788 -5.24079,5.240788 -2.89434,0 -5.24078,-2.34645 -5.24078,-5.240788 0,-2.894349 2.34644,-5.240769 5.24078,-5.240769 2.89434,0 5.24079,2.34642 5.24079,5.240769 z" /><path
       inkscape:connector-curvature="0"
       id="path6352"
       style="fill:none;stroke:#182900;stroke-width:0.99713999;stroke-linecap:square;stroke-linejoin:miter;stroke-miterlimit:10;stroke-dasharray:none;stroke-opacity:1"
       d="m 309.59636,63.395347 c 0,2.894338 -2.34645,5.240788 -5.24079,5.240788 -2.89434,0 -5.24078,-2.34645 -5.24078,-5.240788 0,-2.894349 2.34644,-5.240769 5.24078,-5.240769 2.89434,0 5.24079,2.34642 5.24079,5.240769 z" /><g
       transform="matrix(0.99714,0,0,-0.99714,116.05986,50.304813)"
       id="g6354"><text
         id="text6358"
         style="font-variant:normal;font-weight:normal;font-size:5px;font-family:Helvetica;-inkscape-font-specification:Helvetica;writing-mode:lr-tb;fill:#000000;fill-opacity:1;fill-rule:nonzero;stroke:none"
         transform="matrix(1,0,0,-1,169.31767,0)"><tspan
           id="tspan6356"
           sodipodi:role="line"
           y="0"
           x="0 3.335 6.1149998 7.7800002 10.56 13.06 15.56">Peruzzi</tspan></text>
</g><path
       inkscape:connector-curvature="0"
       id="path6360"
       style="fill:#569000;fill-opacity:1;fill-rule:nonzero;stroke:none;stroke-width:0.99713999"
       d="m 282.40043,44.28823 c 0,3.047479 -2.47046,5.518023 -5.518,5.518023 -3.04756,0 -5.51803,-2.470544 -5.51803,-5.518023 0,-3.047449 2.47047,-5.518023 5.51803,-5.518023 3.04754,0 5.518,2.470574 5.518,5.518023 z" /><path
       inkscape:connector-curvature="0"
       id="path6362"
       style="fill:none;stroke:#569000;stroke-width:0.99713999;stroke-linecap:square;stroke-linejoin:miter;stroke-miterlimit:10;stroke-dasharray:none;stroke-opacity:1"
       d="m 282.40043,44.28823 c 0,3.047479 -2.47046,5.518023 -5.518,5.518023 -3.04756,0 -5.51803,-2.470544 -5.51803,-5.518023 0,-3.047449 2.47047,-5.518023 5.51803,-5.518023 3.04754,0 5.518,2.470574 5.518,5.518023 z" /><text
       xml:space="preserve"
       style="font-style:normal;font-weight:normal;font-size:18.4323864px;line-height:1.25;font-family:sans-serif;letter-spacing:0px;word-spacing:0px;fill:#000000;fill-opacity:1;stroke:none;stroke-width:0.46080968"
       x="362.54166"
       y="100.52422"
       id="text6914"><tspan
         sodipodi:role="line"
         id="tspan6912"
         x="362.54166"
         y="100.52422"
         style="font-size:11.05943203px;stroke-width:0.46080968">Node Size and Color</tspan></text>
<text
       xml:space="preserve"
       style="font-style:normal;font-weight:normal;font-size:18.4323864px;line-height:1.25;font-family:sans-serif;letter-spacing:0px;word-spacing:0px;fill:#000000;fill-opacity:1;stroke:none;stroke-width:0.46080968"
       x="514.09009"
       y="98.633934"
       id="text6918"><tspan
         sodipodi:role="line"
         id="tspan6916"
         x="514.09009"
         y="98.633934"
         style="font-size:11.05943203px;stroke-width:0.46080968">Edge Color</tspan></text>
<text
       xml:space="preserve"
       style="font-style:normal;font-weight:normal;font-size:18.4323864px;line-height:1.25;font-family:sans-serif;letter-spacing:0px;word-spacing:0px;fill:#000000;fill-opacity:1;stroke:none;stroke-width:0.46080968"
       x="363.61331"
       y="113.17553"
       id="text6922"><tspan
         sodipodi:role="line"
         id="tspan6920"
         x="363.61331"
         y="113.17553"
         style="font-size:8.60178089px;fill:#4d4d4d;stroke-width:0.46080968">Wealth (Thousands of Lira)</tspan></text>
<text
       xml:space="preserve"
       style="font-style:normal;font-weight:normal;font-size:18.4323864px;line-height:1.25;font-family:sans-serif;letter-spacing:0px;word-spacing:0px;fill:#000000;fill-opacity:1;stroke:none;stroke-width:0.46080968"
       x="515.95056"
       y="113.83788"
       id="text6926"><tspan
         sodipodi:role="line"
         id="tspan6924"
         x="515.95056"
         y="113.83788"
         style="font-size:8.60178089px;fill:#666666;stroke-width:0.46080968">Relationship Type</tspan></text>
<text
       xml:space="preserve"
       style="font-style:normal;font-weight:normal;font-size:18.4323864px;line-height:1.25;font-family:sans-serif;letter-spacing:0px;word-spacing:0px;fill:#000000;fill-opacity:1;stroke:none;stroke-width:0.46080968"
       x="366.26266"
       y="170.13644"
       id="text6930"><tspan
         sodipodi:role="line"
         id="tspan6928"
         x="366.26266"
         y="170.13644"
         style="font-size:8.60178089px;fill:#4d4d4d;stroke-width:0.46080968">Number of Government Seats (Priorates)</tspan></text>
<path
       inkscape:connector-curvature="0"
       id="path6292-7"
       style="fill:none;fill-opacity:1;stroke:#000000;stroke-width:0.99713999;stroke-linecap:square;stroke-linejoin:miter;stroke-miterlimit:10;stroke-dasharray:none;stroke-opacity:1"
       d="m 387.34929,145.8139 c -5.22267,0.30608 -9.70474,-3.67973 -10.01081,-8.90239 -0.30608,-5.22262 3.67972,-9.70474 8.90239,-10.01081 5.22268,-0.30608 9.70474,3.67977 10.01081,8.90239 0.30608,5.22266 -3.67971,9.70474 -8.90239,10.01081 z" /><path
       inkscape:connector-curvature="0"
       id="path6282-6"
       style="fill:none;stroke:#000000;stroke-width:0.99713999;stroke-linecap:square;stroke-linejoin:miter;stroke-miterlimit:10;stroke-dasharray:none;stroke-opacity:1"
       d="m 387.34929,145.8139 c -1.09954,0.0644 -2.0431,-0.77468 -2.10754,-1.87418 -0.0644,-1.09951 0.77464,-2.0431 1.87419,-2.10754 1.0995,-0.0644 2.0431,0.77468 2.10754,1.87418 0.0644,1.09951 -0.77469,2.04311 -1.87419,2.10754 z"
       inkscape:transform-center-y="0.08409111"
       inkscape:transform-center-x="1.4348657" /><path
       inkscape:connector-curvature="0"
       id="path6332-6"
       style="fill:none;stroke:#000000;stroke-width:0.99713999;stroke-linecap:square;stroke-linejoin:miter;stroke-miterlimit:10;stroke-dasharray:none;stroke-opacity:1"
       d="m 387.34929,145.81389 c -2.30282,0.13496 -4.27902,-1.62246 -4.41398,-3.92527 -0.13496,-2.30277 1.62244,-4.27898 3.92525,-4.41394 2.30278,-0.13495 4.279,1.62245 4.41395,3.92522 0.13496,2.30281 -1.62244,4.27904 -3.92522,4.41399 z"
       inkscape:transform-center-x="30.842206"
       inkscape:transform-center-y="161.62494" /><text
       xml:space="preserve"
       style="font-style:normal;font-weight:normal;font-size:18.4323864px;line-height:1.25;font-family:sans-serif;letter-spacing:0px;word-spacing:0px;fill:#000000;fill-opacity:1;stroke:none;stroke-width:0.46080968"
       x="402.02878"
       y="131.05861"
       id="text7576"><tspan
         sodipodi:role="line"
         id="tspan7574"
         x="402.02878"
         y="131.05861"
         style="font-size:6.14412928px;stroke-width:0.46080968">146</tspan></text>
<text
       xml:space="preserve"
       style="font-style:normal;font-weight:normal;font-size:18.4323864px;line-height:1.25;font-family:sans-serif;letter-spacing:0px;word-spacing:0px;fill:#000000;fill-opacity:1;stroke:none;stroke-width:0.46080968"
       x="402.69113"
       y="139.66896"
       id="text7580"><tspan
         sodipodi:role="line"
         id="tspan7578"
         x="402.69113"
         y="139.66896"
         style="font-size:6.14412928px;stroke-width:0.46080968">27</tspan></text>
<text
       xml:space="preserve"
       style="font-style:normal;font-weight:normal;font-size:18.4323864px;line-height:1.25;font-family:sans-serif;letter-spacing:0px;word-spacing:0px;fill:#000000;fill-opacity:1;stroke:none;stroke-width:0.46080968"
       x="403.35342"
       y="146.95468"
       id="text7584"
       inkscape:transform-center-y="5.7493226"><tspan
         sodipodi:role="line"
         id="tspan7582"
         x="403.35342"
         y="146.95468"
         style="font-size:6.14412928px;stroke-width:0.46080968">3</tspan></text>
<rect
       style="fill:url(#linearGradient7599);fill-opacity:1;stroke:#000000;stroke-width:1.6377176;stroke-miterlimit:10;stroke-dasharray:none;stroke-opacity:1"
       id="rect7589"
       width="121.20747"
       height="21.194748"
       x="367.58734"
       y="177.42213" /><text
       xml:space="preserve"
       style="font-style:normal;font-weight:normal;font-size:18.4323864px;line-height:1.25;font-family:sans-serif;letter-spacing:0px;word-spacing:0px;fill:#000000;fill-opacity:1;stroke:none;stroke-width:0.46080968"
       x="366.26266"
       y="210.53891"
       id="text7603"><tspan
         sodipodi:role="line"
         id="tspan7601"
         x="366.26266"
         y="210.53891"
         style="font-size:6.75854206px;stroke-width:0.46080968">0</tspan></text>
<text
       xml:space="preserve"
       style="font-style:normal;font-weight:normal;font-size:18.4323864px;line-height:1.25;font-family:sans-serif;letter-spacing:0px;word-spacing:0px;fill:#000000;fill-opacity:1;stroke:none;stroke-width:0.46080968"
       x="484.82077"
       y="209.87656"
       id="text7607"><tspan
         sodipodi:role="line"
         id="tspan7605"
         x="484.82077"
         y="209.87656"
         style="font-size:6.75854206px;stroke-width:0.46080968">74</tspan></text>
<rect
       style="fill:#b9babc;fill-opacity:1;stroke:none;stroke-width:1.6377176;stroke-miterlimit:10;stroke-dasharray:none;stroke-opacity:1"
       id="rect7609"
       width="35.766136"
       height="11.922046"
       x="517.93756"
       y="121.12357" /><rect
       style="fill:#000000;fill-opacity:1;stroke:none;stroke-width:1.6377176;stroke-miterlimit:10;stroke-dasharray:none;stroke-opacity:1"
       id="rect7611"
       width="35.766136"
       height="11.25971"
       x="518.59991"
       y="144.30531" /><text
       xml:space="preserve"
       style="font-style:normal;font-weight:normal;font-size:18.4323864px;line-height:1.25;font-family:sans-serif;letter-spacing:0px;word-spacing:0px;fill:#000000;fill-opacity:1;stroke:none;stroke-width:0.46080968"
       x="555.69067"
       y="129.07159"
       id="text7615"><tspan
         sodipodi:role="line"
         id="tspan7613"
         x="555.69067"
         y="129.07159"
         style="font-size:6.75854206px;stroke-width:0.46080968">Marriage Tie</tspan></text>
<text
       xml:space="preserve"
       style="font-style:normal;font-weight:normal;font-size:18.4323864px;line-height:1.25;font-family:sans-serif;letter-spacing:0px;word-spacing:0px;fill:#000000;fill-opacity:1;stroke:none;stroke-width:0.46080968"
       x="556.35303"
       y="152.91568"
       id="text7619"><tspan
         sodipodi:role="line"
         id="tspan7617"
         x="556.35303"
         y="152.91568"
         style="font-size:6.75854206px;stroke-width:0.46080968">Business Tie</tspan></text>
</g></svg>